<svg width="24.392332" height="23.37111" xmlns="http://www.w3.org/2000/svg"><defs/><g transform="matrix(1.3793147 0 0 1.3793147 2.8791707 6.896574)"><g><g transform="matrix(1 0 0 1 0 7.944)"><g transform="matrix(1 0 0 -1 0 0)"><g><path fill="#ffffff" stroke="none" d="M 0.72 0 L 6.132 0 L 6.132 1.2360001 L 2.364 1.2360001 L 2.328 1.272 C 4.86 3.684 6 5.052 6 6.588 C 6 8.52 4.776 9.3 3.192 9.3 C 2.328 9.3 1.476 9 0.852 8.556 L 0.852 7.2 C 1.404 7.704 2.2680001 8.064 3.048 8.064 C 3.888 8.064 4.596 7.656 4.596 6.588 C 4.596 5.184 3.024 3.66 0.72 1.476 Z"/></g></g></g><g transform="matrix(1 0 0 1 6.972 2.544)"><g transform="matrix(1 0 0 -1 0 0)"><g><path fill="#ffffff" stroke="none" d="M 0.40319997 1.4699998 L 3.1752 1.4699998 L 3.1752 0 L 4.3092 0 L 4.3092 1.4699998 L 5.0316 1.4699998 L 5.0316 2.3939998 L 4.3092 2.3939998 L 4.3092 6.4092 L 2.9483998 6.4092 L 0.40319997 2.3855999 Z M 1.5708 2.4192 L 2.6292 4.2251997 C 2.8391998 4.578 3.0828 4.9895997 3.1583996 5.1995997 L 3.1836 5.1995997 C 3.1752 5.1071997 3.1752 2.3939998 3.1752 2.3939998 L 1.596 2.3939998 Z"/></g></g></g></g></g></svg>