<svg width="37.288334" height="23.37111" xmlns="http://www.w3.org/2000/svg"><defs/><g transform="matrix(1.3793147 0 0 1.3793147 4.4013624 6.896574)"><g><g transform="matrix(1 0 0 1 0 7.944)"><g transform="matrix(1 0 0 -1 0 0)"><g><path fill="#ffffff" stroke="none" d="M 0.72 6.768 L 2.676 6.768 L 2.676 1.2360001 L 0.828 1.2360001 L 0.828 0 L 5.904 0 L 5.904 1.2360001 L 4.056 1.2360001 L 4.056 9.156 L 2.676 9.156 C 2.676 9.156 2.676 7.848 0.72 7.848 Z"/></g></g></g><g transform="matrix(1 0 0 1 6.444 7.944)"><g transform="matrix(1 0 0 -1 0 0)"><g><path fill="#ffffff" stroke="none" d="M 0.84 4.572 C 0.84 1.968 1.656 -0.132 4.14 -0.132 C 6.624 -0.132 7.452 1.968 7.452 4.572 C 7.452 7.176 6.624 9.288 4.14 9.288 C 1.656 9.288 0.84 7.176 0.84 4.572 Z M 2.256 4.572 C 2.256 6.48 2.628 8.028 4.14 8.028 C 5.652 8.028 6.036 6.48 6.036 4.572 C 6.036 2.664 5.652 1.128 4.14 1.128 C 2.628 1.128 2.256 2.664 2.256 4.572 Z"/></g></g></g><g transform="matrix(1 0 0 1 14.736 2.544)"><g transform="matrix(1 0 0 -1 0 0)"><g><path fill="#ffffff" stroke="none" d="M 0.4872 0 L 4.3932 0 L 4.3932 0.98279995 L 1.848 0.98279995 L 1.8228 1.0164 C 3.57 2.688 4.3008 3.5868 4.3008 4.6032 C 4.3008 6.048 3.2675996 6.51 2.2763999 6.51 C 1.5624 6.51 0.9324 6.2664 0.5796 6.0228 L 0.5796 4.9476 C 1.0416 5.3171997 1.6464 5.5188 2.1336 5.5188 C 2.7132 5.5188 3.15 5.25 3.15 4.578 C 3.15 3.696 2.2092 2.7552 0.4872 1.1256 Z"/></g></g></g></g></g></svg>