<svg width="39.06283" height="23.37111" xmlns="http://www.w3.org/2000/svg"><defs/><g transform="matrix(1.3793147 0 0 1.3793147 4.610816 6.896574)"><g><g transform="matrix(1 0 0 1 0 7.944)"><g transform="matrix(1 0 0 -1 0 0)"><g><path fill="#ffffff" stroke="none" d="M 0.72 6.768 L 2.676 6.768 L 2.676 1.2360001 L 0.828 1.2360001 L 0.828 0 L 5.904 0 L 5.904 1.2360001 L 4.056 1.2360001 L 4.056 9.156 L 2.676 9.156 C 2.676 9.156 2.676 7.848 0.72 7.848 Z"/></g></g></g><g transform="matrix(1 0 0 1 6.444 7.944)"><g transform="matrix(1 0 0 -1 0 0)"><g><path fill="#ffffff" stroke="none" d="M 0.84 4.572 C 0.84 1.968 1.656 -0.132 4.14 -0.132 C 6.624 -0.132 7.452 1.968 7.452 4.572 C 7.452 7.176 6.624 9.288 4.14 9.288 C 1.656 9.288 0.84 7.176 0.84 4.572 Z M 2.256 4.572 C 2.256 6.48 2.628 8.028 4.14 8.028 C 5.652 8.028 6.036 6.48 6.036 4.572 C 6.036 2.664 5.652 1.128 4.14 1.128 C 2.628 1.128 2.256 2.664 2.256 4.572 Z"/></g></g></g><g transform="matrix(1 0 0 1 14.736 2.544)"><g transform="matrix(1 0 0 -1 0 0)"><g><path fill="#ffffff" stroke="none" d="M 0.57119995 3.2004 C 0.57119995 1.1592 1.3607998 -0.0924 2.9652 -0.0924 C 4.8384 -0.0924 5.376 1.4951998 5.376 3.2004 C 5.376 5.0652 4.7292 6.5016 2.9652 6.5016 C 1.1004 6.5016 0.57119995 4.9224 0.57119995 3.2004 Z M 1.7304 3.2004 C 1.7304 4.5024 1.9907998 5.4852 2.9652 5.4852 C 3.9311998 5.4852 4.2084 4.5192 4.2084 3.2004 C 4.2084 1.89 3.9311998 0.924 2.9652 0.924 C 1.9907998 0.924 1.7304 1.9067998 1.7304 3.2004 Z"/></g></g></g></g></g></svg>