<svg width="23.118334" height="23.37111" xmlns="http://www.w3.org/2000/svg"><defs/><g transform="matrix(1.3793147 0 0 1.3793147 2.7287943 6.896574)"><g><g transform="matrix(1 0 0 1 0 7.944)"><g transform="matrix(1 0 0 -1 0 0)"><g><path fill="#ffffff" stroke="none" d="M 0.72 0 L 6.132 0 L 6.132 1.2360001 L 2.364 1.2360001 L 2.328 1.272 C 4.86 3.684 6 5.052 6 6.588 C 6 8.52 4.776 9.3 3.192 9.3 C 2.328 9.3 1.476 9 0.852 8.556 L 0.852 7.2 C 1.404 7.704 2.2680001 8.064 3.048 8.064 C 3.888 8.064 4.596 7.656 4.596 6.588 C 4.596 5.184 3.024 3.66 0.72 1.476 Z"/></g></g></g><g transform="matrix(1 0 0 1 6.972 2.544)"><g transform="matrix(1 0 0 -1 0 0)"><g><path fill="#ffffff" stroke="none" d="M 0.57119995 0.23519997 C 0.6468 0.20159999 1.1844 -0.0924 2.0748 -0.0924 C 3.4188 -0.0924 4.4772 0.57119995 4.4772 1.8311999 C 4.4772 2.646 4.0235996 3.1416 3.4355996 3.3179996 L 3.4355996 3.3432 C 4.0151997 3.57 4.3764 4.1243997 4.3764 4.8552 C 4.3764 5.871599 3.5868 6.5016 2.3436 6.5016 C 1.6212 6.5016 0.9912 6.316799 0.6803999 6.1488 L 0.6803999 5.0736 C 0.7812 5.1408 1.4028 5.5188 2.2008 5.5188 C 2.856 5.5188 3.234 5.25 3.234 4.7124 C 3.234 3.948 2.3939998 3.7631996 1.8311999 3.7631996 L 1.176 3.7631996 L 1.176 2.7972 L 1.8311999 2.7972 C 2.5956 2.7972 3.3263996 2.6543999 3.3263996 1.8648 C 3.3263996 1.2684 2.856 0.8987999 2.1167998 0.8987999 C 1.2515999 0.8987999 0.6216 1.2936 0.57119995 1.3104 Z"/></g></g></g></g></g></svg>