<svg width="455.22473" height="38.017776" xmlns="http://www.w3.org/2000/svg"><defs/><g transform="matrix(1.5173123 0 0 1.5173123 36.33661 7.586561)"><g><g transform="matrix(1 0 0 1 0 15.88)"><g transform="matrix(1 0 0 -1 0 0)"><g><path fill="#ffffff" stroke="none" d="M 0.96 0 L 8.176001 0 L 8.176001 1.6480001 L 3.1520004 1.6480001 L 3.104 1.6960002 C 6.4800005 4.912 8 6.7360005 8 8.784 C 8 11.36 6.3680005 12.4 4.256 12.4 C 3.104 12.4 1.968 12.000001 1.136 11.408001 L 1.136 9.6 C 1.8720002 10.272 3.0240004 10.752001 4.064 10.752001 C 5.184 10.752001 6.128 10.208 6.128 8.784 C 6.128 6.912 4.032 4.88 0.96 1.968 Z"/></g></g></g><g transform="matrix(1 0 0 1 9.296 15.88)"><g transform="matrix(1 0 0 -1 0 0)"><g><path fill="#ffffff" stroke="none" d="M 1.12 0.48 C 1.12 0.48 2.0640001 -0.17600001 3.9040003 -0.17600001 C 6.3680005 -0.17600001 8.304001 1.12 8.304001 3.456 C 8.304001 5.0880003 7.4400005 6.016 6.32 6.3680005 L 6.32 6.4 C 7.424 6.88 8.128 7.8880005 8.128 9.2960005 C 8.128 11.104 6.784001 12.384002 4.352 12.384002 C 3.2 12.384002 2.032 12.112 1.3440001 11.728002 L 1.3440001 9.952001 C 1.3440001 9.952001 2.48 10.736 4.112 10.736 C 5.44 10.736 6.2560005 10.192 6.2560005 9.0720005 C 6.2560005 7.504 4.544 7.088 3.3760004 7.088 L 2.1920002 7.088 L 2.1920002 5.472 L 3.3760004 5.472 C 4.8320003 5.472 6.432 5.184 6.432 3.5040004 C 6.432 2.24 5.3760004 1.4720001 3.952 1.4720001 C 2.2240002 1.4720001 1.12 2.3040001 1.12 2.3040001 Z"/></g></g></g><g transform="matrix(1 0 0 1 18.4 15.88)"><g transform="matrix(1 0 0 -1 0 0)"><g><path fill="#ffffff" stroke="none" d="M 0.8 2.864 L 6.048001 2.864 L 6.048001 0 L 7.8880005 0 L 7.8880005 2.864 L 9.2960005 2.864 L 9.2960005 4.4 L 7.8880005 4.4 L 7.8880005 12.208 L 5.712001 12.208 L 0.8 4.4 Z M 2.7040002 4.4480004 L 4.9760003 8.272 C 5.504 9.152 5.8560004 9.696 6.0000005 10.128 L 6.048001 10.128 L 6.048001 4.4 L 2.752 4.4 Z"/></g></g></g><g transform="matrix(1 0 0 1 33.260445 15.88)"><g transform="matrix(1 0 0 -1 0 0)"><g><path fill="#ffffff" stroke="none" d="M 1.2800001 1.728 L 10.304001 1.728 L 10.304001 3.328 L 1.2800001 3.328 Z M 1.2800001 5.6320004 L 10.304001 5.6320004 L 10.304001 7.232001 L 1.2800001 7.232001 Z"/></g></g></g><g transform="matrix(1 0 0 1 49.288887 15.88)"><g transform="matrix(1 0 0 -1 0 0)"><g><path fill="#ffffff" stroke="none" d="M 0.96 0 L 8.176001 0 L 8.176001 1.6480001 L 3.1520004 1.6480001 L 3.104 1.6960002 C 6.4800005 4.912 8 6.7360005 8 8.784 C 8 11.36 6.3680005 12.4 4.256 12.4 C 3.104 12.4 1.968 12.000001 1.136 11.408001 L 1.136 9.6 C 1.8720002 10.272 3.0240004 10.752001 4.064 10.752001 C 5.184 10.752001 6.128 10.208 6.128 8.784 C 6.128 6.912 4.032 4.88 0.96 1.968 Z"/></g></g></g><g transform="matrix(1 0 0 1 62.140446 15.88)"><g transform="matrix(1 0 0 -1 0 0)"><g><path fill="#ffffff" stroke="none" d="M 1.6 1.8240001 L 2.8000004 0.64000005 L 5.328 3.1680002 L 7.8560004 0.64000005 L 9.056001 1.8240001 L 6.528001 4.368 L 9.04 6.88 L 7.8560004 8.08 L 5.328 5.552 L 2.8000004 8.08 L 1.616 6.88 L 4.144 4.368 Z"/></g></g></g><g transform="matrix(1 0 0 1 76.352 15.88)"><g transform="matrix(1 0 0 -1 0 0)"><g><path fill="#ffffff" stroke="none" d="M 0.96 9.024 L 3.568 9.024 L 3.568 1.6480001 L 1.1040001 1.6480001 L 1.1040001 0 L 7.872 0 L 7.872 1.6480001 L 5.4080005 1.6480001 L 5.4080005 12.208 L 3.568 12.208 C 3.568 12.208 3.568 10.464001 0.96 10.464001 Z"/></g></g></g><g transform="matrix(1 0 0 1 84.944 15.88)"><g transform="matrix(1 0 0 -1 0 0)"><g><path fill="#ffffff" stroke="none" d="M 1.12 6.096 C 1.12 2.624 2.2080002 -0.17600001 5.5200005 -0.17600001 C 8.832001 -0.17600001 9.936001 2.624 9.936001 6.096 C 9.936001 9.568001 8.832001 12.384002 5.5200005 12.384002 C 2.2080002 12.384002 1.12 9.568001 1.12 6.096 Z M 3.008 6.096 C 3.008 8.64 3.5040004 10.704 5.5200005 10.704 C 7.536 10.704 8.048 8.64 8.048 6.096 C 8.048 3.5520003 7.536 1.504 5.5200005 1.504 C 3.5040004 1.504 3.008 3.5520003 3.008 6.096 Z"/></g></g></g><g transform="matrix(1 0 0 1 96 8.68)"><g transform="matrix(1 0 0 -1 0 0)"><g><path fill="#ffffff" stroke="none" d="M 0.64959997 0 L 5.8576 0 L 5.8576 1.3104 L 2.464 1.3104 L 2.4304 1.3552 C 4.7599998 3.584 5.7344 4.7823997 5.7344 6.1376 C 5.7344 8.064 4.3568 8.679999 3.0352 8.679999 C 2.0832 8.679999 1.2432 8.3552 0.7728 8.030399 L 0.7728 6.5968 C 1.3887998 7.089599 2.1952 7.3584 2.8448 7.3584 C 3.6176 7.3584 4.2 6.9999995 4.2 6.103999 C 4.2 4.928 2.9455998 3.6736 0.64959997 1.5007999 Z"/></g></g></g><g transform="matrix(1 0 0 1 107.44356 15.88)"><g transform="matrix(1 0 0 -1 0 0)"><g><path fill="#ffffff" stroke="none" d="M 1.2800001 3.68 L 4.992 3.68 L 4.992 -0.032 L 6.5920005 -0.032 L 6.5920005 3.68 L 10.304001 3.68 L 10.304001 5.28 L 6.5920005 5.28 L 6.5920005 8.992001 L 4.992 8.992001 L 4.992 5.28 L 1.2800001 5.28 Z"/></g></g></g><g transform="matrix(1 0 0 1 122.55111 15.88)"><g transform="matrix(1 0 0 -1 0 0)"><g><path fill="#ffffff" stroke="none" d="M 1.12 0.48 C 1.12 0.48 2.0640001 -0.17600001 3.9040003 -0.17600001 C 6.3680005 -0.17600001 8.304001 1.12 8.304001 3.456 C 8.304001 5.0880003 7.4400005 6.016 6.32 6.3680005 L 6.32 6.4 C 7.424 6.88 8.128 7.8880005 8.128 9.2960005 C 8.128 11.104 6.784001 12.384002 4.352 12.384002 C 3.2 12.384002 2.032 12.112 1.3440001 11.728002 L 1.3440001 9.952001 C 1.3440001 9.952001 2.48 10.736 4.112 10.736 C 5.44 10.736 6.2560005 10.192 6.2560005 9.0720005 C 6.2560005 7.504 4.544 7.088 3.3760004 7.088 L 2.1920002 7.088 L 2.1920002 5.472 L 3.3760004 5.472 C 4.8320003 5.472 6.432 5.184 6.432 3.5040004 C 6.432 2.24 5.3760004 1.4720001 3.952 1.4720001 C 2.2240002 1.4720001 1.12 2.3040001 1.12 2.3040001 Z"/></g></g></g><g transform="matrix(1 0 0 1 135.21066 15.88)"><g transform="matrix(1 0 0 -1 0 0)"><g><path fill="#ffffff" stroke="none" d="M 1.6 1.8240001 L 2.8000004 0.64000005 L 5.328 3.1680002 L 7.8560004 0.64000005 L 9.056001 1.8240001 L 6.528001 4.368 L 9.04 6.88 L 7.8560004 8.08 L 5.328 5.552 L 2.8000004 8.08 L 1.616 6.88 L 4.144 4.368 Z"/></g></g></g><g transform="matrix(1 0 0 1 149.42223 15.88)"><g transform="matrix(1 0 0 -1 0 0)"><g><path fill="#ffffff" stroke="none" d="M 0.96 9.024 L 3.568 9.024 L 3.568 1.6480001 L 1.1040001 1.6480001 L 1.1040001 0 L 7.872 0 L 7.872 1.6480001 L 5.4080005 1.6480001 L 5.4080005 12.208 L 3.568 12.208 C 3.568 12.208 3.568 10.464001 0.96 10.464001 Z"/></g></g></g><g transform="matrix(1 0 0 1 158.01422 15.88)"><g transform="matrix(1 0 0 -1 0 0)"><g><path fill="#ffffff" stroke="none" d="M 1.12 6.096 C 1.12 2.624 2.2080002 -0.17600001 5.5200005 -0.17600001 C 8.832001 -0.17600001 9.936001 2.624 9.936001 6.096 C 9.936001 9.568001 8.832001 12.384002 5.5200005 12.384002 C 2.2080002 12.384002 1.12 9.568001 1.12 6.096 Z M 3.008 6.096 C 3.008 8.64 3.5040004 10.704 5.5200005 10.704 C 7.536 10.704 8.048 8.64 8.048 6.096 C 8.048 3.5520003 7.536 1.504 5.5200005 1.504 C 3.5040004 1.504 3.008 3.5520003 3.008 6.096 Z"/></g></g></g><g transform="matrix(1 0 0 1 169.07022 8.68)"><g transform="matrix(1 0 0 -1 0 0)"><g><path fill="#ffffff" stroke="none" d="M 0.64959997 6.1936 L 2.4192 6.1936 L 2.4192 1.3104 L 0.7168 1.3104 L 0.7168 0 L 5.6224 0 L 5.6224 1.3104 L 3.9311998 1.3104 L 3.9311998 8.5456 L 2.4192 8.5456 C 2.4192 8.433599 2.3407998 7.3472 0.64959997 7.3472 Z"/></g></g></g><g transform="matrix(1 0 0 1 179.98738 15.88)"><g transform="matrix(1 0 0 -1 0 0)"><g><path fill="#ffffff" stroke="none" d="M 1.2800001 3.68 L 4.992 3.68 L 4.992 -0.032 L 6.5920005 -0.032 L 6.5920005 3.68 L 10.304001 3.68 L 10.304001 5.28 L 6.5920005 5.28 L 6.5920005 8.992001 L 4.992 8.992001 L 4.992 5.28 L 1.2800001 5.28 Z"/></g></g></g><g transform="matrix(1 0 0 1 195.09494 15.88)"><g transform="matrix(1 0 0 -1 0 0)"><g><path fill="#ffffff" stroke="none" d="M 0.8 2.864 L 6.048001 2.864 L 6.048001 0 L 7.8880005 0 L 7.8880005 2.864 L 9.2960005 2.864 L 9.2960005 4.4 L 7.8880005 4.4 L 7.8880005 12.208 L 5.712001 12.208 L 0.8 4.4 Z M 2.7040002 4.4480004 L 4.9760003 8.272 C 5.504 9.152 5.8560004 9.696 6.0000005 10.128 L 6.048001 10.128 L 6.048001 4.4 L 2.752 4.4 Z"/></g></g></g><g transform="matrix(1 0 0 1 209.06648 15.88)"><g transform="matrix(1 0 0 -1 0 0)"><g><path fill="#ffffff" stroke="none" d="M 1.6 1.8240001 L 2.8000004 0.64000005 L 5.328 3.1680002 L 7.8560004 0.64000005 L 9.056001 1.8240001 L 6.528001 4.368 L 9.04 6.88 L 7.8560004 8.08 L 5.328 5.552 L 2.8000004 8.08 L 1.616 6.88 L 4.144 4.368 Z"/></g></g></g><g transform="matrix(1 0 0 1 223.27805 15.88)"><g transform="matrix(1 0 0 -1 0 0)"><g><path fill="#ffffff" stroke="none" d="M 0.96 9.024 L 3.568 9.024 L 3.568 1.6480001 L 1.1040001 1.6480001 L 1.1040001 0 L 7.872 0 L 7.872 1.6480001 L 5.4080005 1.6480001 L 5.4080005 12.208 L 3.568 12.208 C 3.568 12.208 3.568 10.464001 0.96 10.464001 Z"/></g></g></g><g transform="matrix(1 0 0 1 231.87004 15.88)"><g transform="matrix(1 0 0 -1 0 0)"><g><path fill="#ffffff" stroke="none" d="M 1.12 6.096 C 1.12 2.624 2.2080002 -0.17600001 5.5200005 -0.17600001 C 8.832001 -0.17600001 9.936001 2.624 9.936001 6.096 C 9.936001 9.568001 8.832001 12.384002 5.5200005 12.384002 C 2.2080002 12.384002 1.12 9.568001 1.12 6.096 Z M 3.008 6.096 C 3.008 8.64 3.5040004 10.704 5.5200005 10.704 C 7.536 10.704 8.048 8.64 8.048 6.096 C 8.048 3.5520003 7.536 1.504 5.5200005 1.504 C 3.5040004 1.504 3.008 3.5520003 3.008 6.096 Z"/></g></g></g><g transform="matrix(1 0 0 1 242.92604 8.68)"><g transform="matrix(1 0 0 -1 0 0)"><g><path fill="#ffffff" stroke="none" d="M 0.7615999 4.2672 C 0.7615999 1.5456 1.8144 -0.1232 3.9536 -0.1232 C 6.4511995 -0.1232 7.168 1.9935999 7.168 4.2672 C 7.168 6.753599 6.3056 8.668799 3.9536 8.668799 C 1.4672 8.668799 0.7615999 6.5632 0.7615999 4.2672 Z M 2.3072 4.2672 C 2.3072 6.0031996 2.6543999 7.3135996 3.9536 7.3135996 C 5.2416 7.3135996 5.6112 6.0256 5.6112 4.2672 C 5.6112 2.52 5.2416 1.232 3.9536 1.232 C 2.6543999 1.232 2.3072 2.5424 2.3072 4.2672 Z"/></g></g></g></g></g></svg>