<svg xmlns="http://www.w3.org/2000/svg" id="canvas" viewBox="298.929 407.363 1360.730 180.682"><path d="M 310.47,420.68 C 309.02 421.46, 308.40 422.61, 307.62 424.91 C 306.84 427.21, 306.82 428.66, 306.56 432.19 C 306.29 435.72, 306.48 438.10, 306.31 442.56 C 306.14 447.02, 306.01 449.44, 305.70 454.50 C 305.39 459.55, 305.14 462.30, 304.76 467.84 C 304.39 473.38, 304.17 476.32, 303.80 482.19 C 303.44 488.07, 303.24 491.23, 302.94 497.20 C 302.65 503.18, 302.53 506.21, 302.33 512.09 C 302.14 517.97, 302.04 521.02, 301.98 526.60 C 301.91 532.18, 301.91 534.97, 301.99 540.00 C 302.07 545.03, 302.19 547.46, 302.36 551.74 C 302.52 556.02, 302.20 558.43, 302.81 561.41 C 303.42 564.40, 304.41 565.19, 305.41 566.67 C 306.40 568.14, 306.85 568.47, 307.77 568.78 C 308.69 569.08, 309.35 568.88, 310.02 568.20 C 310.69 567.52, 310.83 567.03, 311.12 565.37 C 311.40 563.72, 311.84 562.81, 311.45 559.94 C 311.06 557.06, 309.89 555.05, 309.16 551.01 C 308.43 546.97, 308.18 544.63, 307.81 539.74 C 307.45 534.86, 307.40 532.10, 307.33 526.60 C 307.27 521.10, 307.33 518.07, 307.48 512.24 C 307.63 506.42, 307.75 503.41, 308.08 497.47 C 308.41 491.54, 308.65 488.40, 309.12 482.58 C 309.60 476.75, 309.85 473.83, 310.45 468.35 C 311.05 462.86, 311.41 460.15, 312.13 455.16 C 312.85 450.17, 313.27 447.76, 314.05 443.40 C 314.83 439.03, 315.44 436.82, 316.03 433.34 C 316.61 429.86, 317.23 428.46, 316.99 425.99 C 316.76 423.53, 316.16 422.09, 314.86 421.03 C 313.56 419.97, 311.92 419.91, 310.47 420.68" style="stroke: black; fill: black;"/><path d="M 380.36,430.37 C 379.19 429.61, 378.53 429.73, 377.09 429.93 C 375.66 430.13, 374.92 430.30, 373.17 431.36 C 371.42 432.43, 370.20 433.23, 368.34 435.25 C 366.48 437.27, 365.78 438.87, 363.87 441.47 C 361.96 444.06, 361.00 445.43, 358.77 448.22 C 356.55 451.02, 355.20 452.49, 352.74 455.43 C 350.28 458.38, 348.93 459.92, 346.46 462.97 C 343.99 466.02, 342.69 467.60, 340.39 470.68 C 338.08 473.75, 336.91 475.27, 334.94 478.32 C 332.97 481.37, 331.89 482.79, 330.55 485.92 C 329.21 489.05, 328.60 490.75, 328.24 493.98 C 327.88 497.21, 327.97 498.91, 328.76 502.08 C 329.55 505.26, 330.08 507.06, 332.18 509.85 C 334.28 512.64, 335.98 513.85, 339.27 516.05 C 342.56 518.26, 344.51 519.06, 348.63 520.88 C 352.75 522.70, 355.07 523.54, 359.87 525.16 C 364.67 526.77, 367.40 527.55, 372.63 528.94 C 377.86 530.33, 381.04 531.04, 386.02 532.10 C 390.99 533.16, 393.66 533.88, 397.52 534.23 C 401.39 534.57, 403.68 534.63, 405.34 533.82 C 406.99 533.00, 407.16 531.36, 405.80 530.17 C 404.45 528.97, 402.25 528.71, 398.56 527.84 C 394.86 526.96, 392.19 526.76, 387.32 525.78 C 382.46 524.80, 379.27 524.31, 374.24 522.94 C 369.20 521.58, 366.59 520.71, 362.14 518.95 C 357.69 517.19, 355.52 516.10, 351.98 514.13 C 348.44 512.15, 346.85 511.07, 344.45 509.06 C 342.06 507.05, 341.34 505.92, 340.02 504.07 C 338.69 502.22, 338.29 501.60, 337.82 499.79 C 337.35 497.99, 337.42 497.15, 337.68 495.06 C 337.93 492.98, 338.18 491.82, 339.09 489.36 C 340.00 486.89, 340.66 485.52, 342.22 482.74 C 343.79 479.96, 344.84 478.40, 346.93 475.47 C 349.02 472.53, 350.27 470.98, 352.68 468.08 C 355.10 465.18, 356.43 463.71, 359.00 460.97 C 361.57 458.23, 362.98 456.82, 365.52 454.37 C 368.07 451.91, 369.38 450.74, 371.73 448.71 C 374.07 446.69, 375.39 445.93, 377.26 444.24 C 379.14 442.55, 379.99 441.76, 381.10 440.28 C 382.22 438.79, 382.46 438.13, 382.83 436.82 C 383.21 435.51, 383.47 435.01, 382.98 433.72 C 382.48 432.43, 381.54 431.13, 380.36 430.37" style="stroke: black; fill: black;"/><path d="M 478.06,492.27 C 479.24 491.06, 479.48 489.60, 479.32 487.64 C 479.15 485.68, 478.62 484.48, 477.25 482.47 C 475.89 480.46, 474.78 479.18, 472.50 477.59 C 470.22 475.99, 468.73 475.37, 465.86 474.49 C 462.99 473.62, 461.39 473.23, 458.15 473.23 C 454.91 473.22, 453.16 473.63, 449.64 474.46 C 446.13 475.28, 444.26 475.89, 440.59 477.36 C 436.91 478.83, 434.87 479.72, 431.27 481.80 C 427.68 483.87, 425.83 485.10, 422.61 487.74 C 419.39 490.38, 417.80 491.89, 415.18 495.01 C 412.56 498.14, 411.27 499.85, 409.49 503.37 C 407.71 506.88, 406.98 508.89, 406.29 512.59 C 405.59 516.28, 405.47 518.30, 406.01 521.85 C 406.55 525.39, 407.12 527.29, 408.98 530.32 C 410.84 533.35, 412.30 534.90, 415.30 537.01 C 418.30 539.11, 420.29 539.82, 423.97 540.84 C 427.66 541.86, 429.66 542.06, 433.72 542.11 C 437.77 542.16, 440.04 541.89, 444.24 541.09 C 448.44 540.29, 450.72 539.64, 454.71 538.10 C 458.71 536.55, 460.64 535.59, 464.21 533.36 C 467.77 531.14, 469.51 529.73, 472.54 526.97 C 475.57 524.21, 477.03 522.71, 479.37 519.58 C 481.72 516.45, 482.68 514.68, 484.27 511.32 C 485.86 507.96, 486.49 506.18, 487.34 502.77 C 488.20 499.35, 488.94 497.10, 488.53 494.26 C 488.13 491.42, 487.05 489.84, 485.32 488.57 C 483.58 487.30, 481.86 487.19, 479.86 487.90 C 477.87 488.61, 476.39 489.73, 475.36 492.11 C 474.32 494.48, 474.26 496.48, 474.70 499.79 C 475.14 503.10, 476.35 505.15, 477.55 508.65 C 478.76 512.15, 479.37 513.92, 480.74 517.28 C 482.10 520.65, 482.73 522.33, 484.38 525.48 C 486.02 528.64, 486.90 530.22, 488.96 533.06 C 491.03 535.89, 492.21 537.44, 494.70 539.65 C 497.19 541.87, 498.81 542.99, 501.42 544.14 C 504.04 545.28, 505.64 545.43, 507.77 545.39 C 509.89 545.34, 511.06 544.90, 512.04 543.93 C 513.03 542.96, 513.08 541.79, 512.70 540.55 C 512.33 539.32, 511.47 538.89, 510.18 537.77 C 508.89 536.64, 508.06 536.12, 506.26 534.94 C 504.46 533.77, 503.16 533.41, 501.18 531.89 C 499.19 530.37, 498.10 529.46, 496.33 527.35 C 494.56 525.23, 493.71 523.95, 492.32 521.32 C 490.92 518.68, 490.30 517.17, 489.36 514.16 C 488.42 511.16, 487.98 509.46, 487.61 506.28 C 487.24 503.09, 487.81 501.02, 487.51 498.24 C 487.22 495.47, 487.06 494.11, 486.14 492.41 C 485.22 490.71, 484.24 490.16, 482.92 489.76 C 481.61 489.35, 480.58 489.47, 479.55 490.40 C 478.52 491.33, 478.09 492.29, 477.76 494.42 C 477.43 496.55, 478.16 498.33, 477.89 501.04 C 477.63 503.75, 477.44 505.21, 476.42 507.97 C 475.41 510.73, 474.63 512.18, 472.80 514.84 C 470.97 517.51, 469.78 518.88, 467.26 521.30 C 464.73 523.72, 463.23 525.01, 460.18 526.93 C 457.13 528.86, 455.47 529.65, 452.01 530.91 C 448.55 532.17, 446.47 532.68, 442.87 533.23 C 439.27 533.79, 437.28 533.89, 434.02 533.68 C 430.77 533.46, 429.23 533.05, 426.58 532.16 C 423.94 531.28, 422.70 530.63, 420.80 529.26 C 418.91 527.88, 418.23 527.08, 417.09 525.29 C 415.96 523.50, 415.58 522.57, 415.15 520.31 C 414.72 518.06, 414.58 516.69, 414.93 514.01 C 415.29 511.34, 415.65 509.75, 416.92 506.96 C 418.19 504.17, 419.15 502.68, 421.28 500.07 C 423.42 497.45, 424.80 496.10, 427.58 493.88 C 430.37 491.66, 432.02 490.61, 435.21 488.96 C 438.39 487.31, 440.29 486.61, 443.51 485.64 C 446.73 484.68, 448.41 484.40, 451.29 484.14 C 454.17 483.88, 455.55 484.23, 457.89 484.35 C 460.23 484.47, 461.37 484.36, 462.98 484.75 C 464.59 485.14, 464.95 485.42, 465.94 486.29 C 466.93 487.16, 467.09 488.01, 467.92 489.09 C 468.75 490.16, 468.97 490.75, 470.07 491.68 C 471.17 492.60, 471.82 493.61, 473.42 493.73 C 475.02 493.85, 476.89 493.49, 478.06 492.27" style="stroke: black; fill: black;"/><path d="M 521.21,479.50 C 519.89 480.49, 519.51 481.78, 519.06 483.97 C 518.61 486.17, 518.60 487.58, 518.97 490.47 C 519.35 493.35, 520.14 495.10, 520.92 498.40 C 521.70 501.70, 522.14 503.56, 522.88 506.95 C 523.62 510.34, 523.94 511.98, 524.63 515.35 C 525.32 518.72, 525.56 520.55, 526.34 523.79 C 527.12 527.03, 527.45 528.79, 528.53 531.57 C 529.62 534.34, 530.35 535.59, 531.77 537.66 C 533.19 539.72, 533.89 540.71, 535.63 541.88 C 537.38 543.06, 538.45 543.39, 540.49 543.54 C 542.53 543.68, 543.85 543.55, 545.85 542.61 C 547.86 541.67, 549.04 540.84, 550.51 538.84 C 551.99 536.83, 552.47 535.34, 553.21 532.60 C 553.96 529.85, 553.70 528.19, 554.25 525.13 C 554.80 522.07, 555.16 520.41, 555.95 517.29 C 556.74 514.18, 557.28 512.41, 558.22 509.56 C 559.16 506.71, 559.96 505.34, 560.66 503.05 C 561.35 500.75, 561.71 499.48, 561.70 498.09 C 561.69 496.69, 561.13 496.13, 560.62 496.06 C 560.10 495.99, 559.41 496.55, 559.14 497.75 C 558.88 498.95, 558.72 499.96, 559.29 502.07 C 559.86 504.18, 560.64 505.60, 562.01 508.29 C 563.38 510.99, 564.46 512.58, 566.12 515.53 C 567.78 518.49, 568.50 520.08, 570.32 523.08 C 572.14 526.08, 573.13 527.73, 575.21 530.52 C 577.30 533.31, 578.35 534.81, 580.75 537.03 C 583.15 539.24, 584.50 540.16, 587.21 541.61 C 589.92 543.05, 591.36 543.70, 594.29 544.25 C 597.23 544.81, 598.94 544.88, 601.88 544.39 C 604.83 543.89, 606.34 543.31, 609.01 541.76 C 611.68 540.21, 613.10 539.17, 615.22 536.65 C 617.33 534.14, 618.16 532.44, 619.58 529.19 C 621.00 525.93, 621.43 524.07, 622.31 520.39 C 623.19 516.71, 623.54 514.68, 623.98 510.80 C 624.41 506.93, 624.47 504.90, 624.48 501.02 C 624.50 497.13, 624.36 495.12, 624.07 491.40 C 623.79 487.68, 623.60 485.69, 623.05 482.42 C 622.50 479.14, 622.23 477.50, 621.33 475.04 C 620.42 472.59, 619.73 471.54, 618.52 470.13 C 617.31 468.72, 616.47 468.19, 615.28 468.01 C 614.09 467.83, 613.29 468.34, 612.57 469.22 C 611.85 470.09, 611.86 470.69, 611.68 472.39 C 611.50 474.10, 611.22 475.33, 611.67 477.73 C 612.11 480.13, 613.12 481.48, 613.91 484.39 C 614.69 487.30, 615.14 488.97, 615.59 492.29 C 616.04 495.60, 616.17 497.49, 616.15 500.97 C 616.13 504.45, 616.02 506.29, 615.50 509.68 C 614.97 513.07, 614.50 514.91, 613.51 517.94 C 612.52 520.96, 611.88 522.44, 610.57 524.80 C 609.25 527.17, 608.34 528.07, 606.94 529.76 C 605.55 531.46, 604.96 532.26, 603.60 533.28 C 602.25 534.30, 601.65 534.55, 600.16 534.85 C 598.67 535.15, 597.80 535.14, 596.15 534.79 C 594.50 534.45, 593.65 534.16, 591.93 533.13 C 590.20 532.11, 589.36 531.34, 587.52 529.66 C 585.67 527.98, 584.52 526.99, 582.71 524.73 C 580.90 522.47, 579.94 521.06, 578.46 518.37 C 576.98 515.67, 576.41 514.22, 575.33 511.26 C 574.24 508.30, 574.05 506.46, 573.03 503.58 C 572.01 500.70, 571.70 499.03, 570.23 496.86 C 568.77 494.69, 567.77 493.85, 565.71 492.71 C 563.65 491.57, 562.20 490.98, 559.92 491.16 C 557.65 491.35, 556.17 492.00, 554.33 493.62 C 552.49 495.25, 551.87 496.70, 550.72 499.29 C 549.57 501.88, 549.46 503.52, 548.57 506.57 C 547.68 509.62, 547.28 511.40, 546.29 514.53 C 545.29 517.67, 544.67 519.36, 543.61 522.25 C 542.55 525.14, 541.74 526.61, 540.98 528.97 C 540.22 531.32, 539.95 532.40, 539.79 534.02 C 539.64 535.64, 539.84 536.34, 540.21 537.07 C 540.57 537.81, 541.32 537.89, 541.61 537.70 C 541.90 537.51, 541.96 537.07, 541.66 536.12 C 541.37 535.16, 540.83 534.59, 540.13 532.91 C 539.43 531.24, 539.10 530.09, 538.16 527.75 C 537.23 525.42, 536.38 524.07, 535.44 521.22 C 534.50 518.37, 534.13 516.68, 533.45 513.50 C 532.77 510.32, 532.49 508.67, 532.03 505.33 C 531.58 501.98, 531.45 500.09, 531.18 496.76 C 530.91 493.44, 531.16 491.51, 530.66 488.70 C 530.17 485.88, 529.72 484.62, 528.72 482.68 C 527.72 480.74, 527.16 479.63, 525.66 479.00 C 524.16 478.36, 522.53 478.50, 521.21 479.50" style="stroke: black; fill: black;"/><path d="M 689.19,479.26 C 689.67 477.68, 689.18 476.49, 688.27 474.90 C 687.35 473.30, 686.53 472.55, 684.62 471.28 C 682.71 470.02, 681.27 469.26, 678.71 468.57 C 676.15 467.88, 674.66 467.84, 671.83 467.81 C 669.01 467.78, 667.59 467.82, 664.59 468.41 C 661.59 469.01, 659.95 469.40, 656.83 470.79 C 653.71 472.18, 651.96 473.22, 648.97 475.35 C 645.99 477.47, 644.53 478.75, 641.89 481.41 C 639.25 484.08, 637.95 485.52, 635.78 488.67 C 633.60 491.81, 632.46 493.62, 631.00 497.15 C 629.53 500.69, 628.84 502.63, 628.43 506.34 C 628.03 510.06, 628.13 512.13, 628.95 515.73 C 629.77 519.33, 630.58 521.28, 632.55 524.33 C 634.52 527.38, 635.87 528.80, 638.80 530.96 C 641.73 533.12, 643.62 533.98, 647.20 535.12 C 650.78 536.25, 652.89 536.56, 656.71 536.63 C 660.52 536.70, 662.53 536.34, 666.30 535.47 C 670.06 534.59, 672.00 533.87, 675.55 532.26 C 679.10 530.64, 680.92 529.64, 684.05 527.40 C 687.18 525.16, 688.67 523.79, 691.20 521.06 C 693.73 518.33, 694.82 516.76, 696.68 513.73 C 698.54 510.70, 699.33 509.13, 700.49 505.91 C 701.65 502.69, 702.16 500.86, 702.48 497.62 C 702.81 494.39, 702.59 492.68, 702.11 489.73 C 701.63 486.79, 701.49 485.05, 700.08 482.91 C 698.66 480.78, 697.25 479.54, 695.04 479.04 C 692.83 478.55, 690.93 479.08, 689.03 480.44 C 687.14 481.80, 686.16 483.23, 685.58 485.82 C 684.99 488.42, 685.27 490.22, 686.11 493.41 C 686.94 496.60, 688.25 498.39, 689.73 501.77 C 691.21 505.14, 691.94 506.92, 693.50 510.28 C 695.07 513.64, 695.84 515.39, 697.56 518.57 C 699.28 521.74, 700.17 523.32, 702.12 526.16 C 704.07 528.99, 705.04 530.46, 707.31 532.74 C 709.58 535.02, 711.06 536.16, 713.48 537.56 C 715.91 538.95, 717.41 539.35, 719.46 539.70 C 721.51 540.05, 722.39 539.72, 723.74 539.32 C 725.08 538.91, 725.70 538.59, 726.18 537.67 C 726.66 536.75, 726.45 535.62, 726.14 534.71 C 725.83 533.80, 725.33 533.82, 724.64 533.12 C 723.95 532.41, 723.83 532.06, 722.68 531.20 C 721.53 530.34, 720.59 529.97, 718.90 528.81 C 717.20 527.65, 716.10 527.03, 714.22 525.40 C 712.34 523.78, 711.30 522.90, 709.52 520.69 C 707.73 518.47, 706.84 517.11, 705.30 514.32 C 703.75 511.54, 702.98 509.90, 701.79 506.76 C 700.59 503.62, 700.01 501.85, 699.31 498.61 C 698.62 495.38, 698.85 493.30, 698.30 490.58 C 697.76 487.85, 697.50 486.55, 696.60 484.99 C 695.70 483.43, 694.91 483.02, 693.80 482.77 C 692.70 482.53, 691.69 482.91, 691.07 483.75 C 690.44 484.59, 690.51 485.45, 690.68 486.97 C 690.85 488.50, 691.60 489.41, 691.91 491.38 C 692.22 493.35, 692.34 494.51, 692.23 496.82 C 692.13 499.14, 692.04 500.50, 691.37 502.97 C 690.69 505.44, 690.18 506.72, 688.85 509.18 C 687.52 511.63, 686.67 512.97, 684.71 515.22 C 682.75 517.48, 681.57 518.61, 679.04 520.46 C 676.51 522.32, 674.97 523.17, 672.05 524.48 C 669.12 525.78, 667.43 526.36, 664.41 526.99 C 661.40 527.62, 659.85 527.77, 656.98 527.63 C 654.12 527.49, 652.59 527.16, 650.07 526.30 C 647.56 525.45, 646.33 524.80, 644.41 523.37 C 642.49 521.95, 641.76 521.13, 640.47 519.17 C 639.17 517.21, 638.55 515.94, 637.93 513.56 C 637.31 511.18, 637.11 509.87, 637.36 507.26 C 637.60 504.66, 638.02 503.24, 639.14 500.53 C 640.26 497.82, 641.16 496.23, 642.96 493.71 C 644.76 491.18, 645.90 489.97, 648.15 487.91 C 650.41 485.85, 651.73 484.88, 654.24 483.42 C 656.76 481.95, 658.25 481.41, 660.73 480.57 C 663.20 479.72, 664.43 479.57, 666.62 479.19 C 668.80 478.81, 669.90 478.62, 671.67 478.66 C 673.44 478.70, 674.06 478.89, 675.47 479.39 C 676.89 479.89, 677.45 480.50, 678.74 481.14 C 680.03 481.78, 680.48 482.27, 681.90 482.61 C 683.33 482.94, 684.42 483.48, 685.87 482.81 C 687.33 482.14, 688.71 480.85, 689.19 479.26" style="stroke: black; fill: black;"/><path d="M 723.83,429.04 C 722.77 430.12, 722.62 431.07, 722.51 433.06 C 722.41 435.04, 722.34 436.38, 723.33 438.97 C 724.31 441.57, 725.72 442.90, 727.42 446.02 C 729.13 449.14, 730.03 451.02, 731.85 454.59 C 733.66 458.17, 734.63 460.11, 736.48 463.91 C 738.33 467.72, 739.20 469.80, 741.09 473.62 C 742.98 477.45, 743.99 479.42, 745.93 483.03 C 747.87 486.64, 748.83 488.41, 750.79 491.68 C 752.75 494.95, 753.61 496.59, 755.72 499.38 C 757.83 502.16, 758.89 503.59, 761.35 505.59 C 763.82 507.58, 765.29 508.34, 768.05 509.33 C 770.82 510.32, 772.30 510.51, 775.17 510.53 C 778.03 510.56, 780.02 510.82, 782.36 509.46 C 784.71 508.10, 786.62 505.83, 786.89 503.74 C 787.15 501.64, 785.43 499.73, 783.68 499.00 C 781.94 498.27, 779.91 499.59, 778.16 500.07 C 776.40 500.55, 776.27 501.25, 774.91 501.39 C 773.55 501.54, 772.87 501.46, 771.36 500.79 C 769.85 500.13, 769.13 499.47, 767.35 498.07 C 765.56 496.67, 764.41 495.92, 762.43 493.79 C 760.45 491.65, 759.45 490.27, 757.45 487.39 C 755.45 484.52, 754.40 482.81, 752.45 479.41 C 750.49 476.01, 749.48 474.13, 747.66 470.40 C 745.85 466.67, 744.99 464.60, 743.36 460.78 C 741.73 456.96, 740.86 455.01, 739.53 451.29 C 738.20 447.57, 737.70 445.58, 736.72 442.19 C 735.74 438.80, 735.73 436.83, 734.63 434.34 C 733.53 431.85, 732.58 431.08, 731.22 429.75 C 729.86 428.42, 729.30 427.82, 727.83 427.68 C 726.35 427.54, 724.90 427.97, 723.83 429.04" style="stroke: black; fill: black;"/><path d="M 803.12,410.46 C 801.66 410.76, 800.94 411.33, 799.75 412.95 C 798.55 414.58, 797.70 415.81, 797.15 418.58 C 796.60 421.35, 797.22 423.22, 796.99 426.81 C 796.76 430.40, 796.55 432.41, 796.01 436.54 C 795.46 440.66, 794.98 442.86, 794.25 447.44 C 793.53 452.02, 793.08 454.52, 792.37 459.44 C 791.66 464.36, 791.29 466.90, 790.70 472.05 C 790.12 477.19, 789.87 479.87, 789.45 485.18 C 789.04 490.48, 788.84 493.26, 788.63 498.56 C 788.41 503.87, 788.38 506.57, 788.38 511.72 C 788.39 516.87, 788.46 519.43, 788.66 524.30 C 788.86 529.16, 788.93 531.54, 789.38 536.02 C 789.82 540.50, 790.09 542.74, 790.87 546.69 C 791.65 550.65, 791.86 552.69, 793.26 555.80 C 794.66 558.92, 796.14 561.34, 797.87 562.29 C 799.60 563.23, 801.40 562.32, 801.93 560.51 C 802.46 558.70, 801.32 556.32, 800.52 553.24 C 799.73 550.15, 798.89 548.70, 797.96 545.10 C 797.04 541.49, 796.53 539.44, 795.89 535.21 C 795.24 530.98, 795.08 528.67, 794.74 523.96 C 794.41 519.25, 794.30 516.71, 794.22 511.67 C 794.15 506.64, 794.17 503.99, 794.37 498.79 C 794.57 493.59, 794.76 490.85, 795.22 485.65 C 795.67 480.45, 795.95 477.82, 796.63 472.78 C 797.31 467.74, 797.73 465.27, 798.61 460.46 C 799.50 455.66, 800.01 453.23, 801.04 448.76 C 802.06 444.29, 802.63 442.13, 803.74 438.11 C 804.85 434.09, 805.48 432.10, 806.59 428.64 C 807.70 425.18, 808.84 423.57, 809.31 420.82 C 809.78 418.07, 809.37 416.77, 808.92 414.89 C 808.46 413.02, 808.20 412.34, 807.04 411.45 C 805.88 410.57, 804.58 410.16, 803.12 410.46" style="stroke: black; fill: black;"/><path d="M 840.87,491.52 C 839.49 492.01, 839.06 492.75, 838.18 494.30 C 837.31 495.86, 836.78 496.81, 836.48 499.27 C 836.18 501.73, 836.38 503.51, 836.68 506.61 C 836.98 509.70, 837.43 511.38, 837.98 514.75 C 838.52 518.13, 838.75 519.95, 839.41 523.46 C 840.06 526.97, 840.34 528.87, 841.25 532.29 C 842.16 535.71, 842.62 537.48, 843.95 540.57 C 845.28 543.66, 846.04 545.23, 847.90 547.75 C 849.77 550.28, 850.89 551.45, 853.27 553.19 C 855.65 554.92, 857.07 555.69, 859.80 556.43 C 862.52 557.16, 864.09 557.21, 866.89 556.87 C 869.70 556.52, 871.14 556.10, 873.81 554.71 C 876.48 553.33, 878.00 552.39, 880.26 549.96 C 882.51 547.53, 883.33 545.72, 885.10 542.57 C 886.86 539.42, 887.64 537.68, 889.09 534.21 C 890.55 530.73, 891.24 528.77, 892.38 525.18 C 893.52 521.59, 893.93 519.68, 894.79 516.27 C 895.65 512.86, 896.42 511.11, 896.67 508.13 C 896.93 505.15, 896.90 503.26, 896.05 501.38 C 895.21 499.51, 893.97 498.87, 892.44 498.73 C 890.91 498.59, 889.56 499.18, 888.41 500.70 C 887.26 502.22, 886.51 503.70, 886.70 506.31 C 886.89 508.93, 888.00 510.65, 889.35 513.78 C 890.70 516.91, 891.78 518.67, 893.45 521.97 C 895.11 525.26, 895.88 526.96, 897.67 530.26 C 899.46 533.55, 900.40 535.29, 902.40 538.44 C 904.40 541.60, 905.46 543.24, 907.66 546.03 C 909.85 548.82, 910.92 550.21, 913.39 552.39 C 915.87 554.56, 917.26 555.56, 920.02 556.92 C 922.79 558.28, 924.32 558.83, 927.23 559.20 C 930.14 559.56, 931.79 559.48, 934.57 558.73 C 937.35 557.98, 938.79 557.21, 941.12 555.44 C 943.45 553.67, 944.55 552.54, 946.23 549.89 C 947.91 547.23, 948.54 545.52, 949.52 542.18 C 950.50 538.83, 950.62 536.90, 951.13 533.18 C 951.65 529.46, 951.88 527.50, 952.10 523.58 C 952.31 519.66, 952.34 517.51, 952.21 513.58 C 952.07 509.66, 951.84 507.65, 951.42 503.97 C 951.01 500.28, 950.80 498.44, 950.14 495.14 C 949.48 491.84, 949.13 490.08, 948.12 487.48 C 947.10 484.87, 946.28 483.63, 945.05 482.09 C 943.83 480.55, 943.06 480.36, 941.99 479.77 C 940.93 479.19, 940.59 479.06, 939.72 479.15 C 938.86 479.25, 938.22 479.60, 937.65 480.25 C 937.08 480.90, 937.03 481.27, 936.86 482.43 C 936.70 483.59, 936.48 484.30, 936.84 486.05 C 937.20 487.79, 937.78 488.88, 938.66 491.15 C 939.54 493.42, 940.36 494.59, 941.23 497.38 C 942.10 500.18, 942.48 501.82, 943.03 505.12 C 943.57 508.41, 943.82 510.31, 943.95 513.87 C 944.07 517.43, 944.01 519.39, 943.64 522.91 C 943.27 526.44, 942.87 528.30, 942.10 531.50 C 941.33 534.69, 940.80 536.31, 939.78 538.89 C 938.77 541.48, 938.00 542.59, 937.02 544.43 C 936.03 546.28, 935.85 547.06, 934.87 548.11 C 933.89 549.17, 933.38 549.36, 932.12 549.70 C 930.87 550.04, 930.15 550.11, 928.61 549.82 C 927.07 549.53, 926.23 549.21, 924.43 548.25 C 922.63 547.29, 921.60 546.62, 919.62 545.03 C 917.65 543.44, 916.55 542.54, 914.55 540.29 C 912.55 538.04, 911.47 536.58, 909.63 533.78 C 907.80 530.99, 906.84 529.38, 905.37 526.31 C 903.89 523.23, 903.21 521.63, 902.25 518.42 C 901.29 515.21, 901.17 513.31, 900.59 510.26 C 900.00 507.22, 900.32 505.40, 899.32 503.19 C 898.31 500.99, 897.22 500.22, 895.56 499.24 C 893.91 498.26, 892.72 497.94, 891.04 498.30 C 889.36 498.66, 888.15 499.25, 887.16 501.02 C 886.16 502.80, 886.33 504.48, 886.07 507.18 C 885.81 509.87, 886.28 511.45, 885.86 514.52 C 885.45 517.58, 884.99 519.33, 883.98 522.52 C 882.97 525.71, 882.27 527.51, 880.82 530.47 C 879.37 533.42, 878.46 534.90, 876.73 537.29 C 875.01 539.67, 873.82 540.65, 872.18 542.37 C 870.54 544.09, 869.89 544.85, 868.52 545.89 C 867.16 546.93, 866.59 547.24, 865.34 547.57 C 864.10 547.90, 863.53 547.93, 862.30 547.55 C 861.08 547.17, 860.46 546.80, 859.20 545.66 C 857.94 544.53, 857.29 543.68, 855.99 541.86 C 854.70 540.05, 853.89 538.99, 852.72 536.59 C 851.56 534.18, 851.01 532.76, 850.18 529.84 C 849.34 526.92, 848.99 525.15, 848.56 521.97 C 848.12 518.78, 847.99 517.04, 847.99 513.92 C 847.99 510.80, 848.38 509.29, 848.57 506.39 C 848.77 503.49, 849.19 501.78, 848.95 499.43 C 848.71 497.08, 848.16 496.16, 847.39 494.64 C 846.62 493.11, 846.41 492.44, 845.11 491.82 C 843.80 491.20, 842.26 491.02, 840.87 491.52" style="stroke: black; fill: black;"/><path d="M 975.85,482.68 C 974.54 482.90, 974.10 483.14, 973.11 484.26 C 972.12 485.37, 971.42 486.15, 970.88 488.27 C 970.34 490.39, 970.20 491.94, 970.40 494.83 C 970.60 497.73, 971.31 499.40, 971.90 502.73 C 972.48 506.06, 972.65 507.91, 973.34 511.47 C 974.03 515.03, 974.38 516.97, 975.34 520.55 C 976.30 524.12, 976.90 525.98, 978.13 529.35 C 979.35 532.72, 980.06 534.33, 981.46 537.40 C 982.87 540.46, 983.44 542.11, 985.16 544.68 C 986.87 547.25, 987.95 548.42, 990.02 550.25 C 992.09 552.08, 993.21 552.89, 995.50 553.83 C 997.79 554.76, 999.10 555.07, 1001.47 554.94 C 1003.85 554.80, 1005.23 554.34, 1007.37 553.15 C 1009.51 551.95, 1010.50 551.07, 1012.18 548.95 C 1013.85 546.84, 1014.72 545.43, 1015.75 542.57 C 1016.79 539.71, 1016.77 537.82, 1017.36 534.65 C 1017.95 531.47, 1018.02 529.79, 1018.72 526.69 C 1019.41 523.59, 1020.12 522.01, 1020.84 519.13 C 1021.56 516.24, 1022.08 514.49, 1022.32 512.25 C 1022.55 510.01, 1022.53 509.02, 1022.03 507.92 C 1021.54 506.83, 1020.71 506.48, 1019.83 506.75 C 1018.96 507.03, 1018.01 507.61, 1017.65 509.29 C 1017.30 510.97, 1017.12 512.57, 1018.04 515.15 C 1018.96 517.73, 1020.46 519.14, 1022.25 522.19 C 1024.03 525.24, 1024.96 527.10, 1026.97 530.40 C 1028.98 533.71, 1029.94 535.47, 1032.31 538.71 C 1034.67 541.95, 1036.03 543.64, 1038.78 546.61 C 1041.53 549.57, 1042.97 551.03, 1046.06 553.54 C 1049.16 556.05, 1050.85 557.24, 1054.24 559.15 C 1057.63 561.06, 1059.48 561.93, 1063.02 563.09 C 1066.57 564.25, 1068.43 564.67, 1071.96 564.94 C 1075.48 565.20, 1077.37 565.17, 1080.65 564.42 C 1083.92 563.67, 1085.52 562.93, 1088.34 561.18 C 1091.17 559.43, 1092.65 558.27, 1094.78 555.67 C 1096.91 553.06, 1097.69 551.36, 1098.97 548.17 C 1100.26 544.99, 1100.54 543.25, 1101.21 539.75 C 1101.87 536.24, 1102.20 534.35, 1102.29 530.64 C 1102.38 526.93, 1102.19 524.90, 1101.66 521.20 C 1101.14 517.50, 1100.71 515.66, 1099.68 512.13 C 1098.65 508.60, 1097.92 506.85, 1096.52 503.57 C 1095.12 500.28, 1094.27 498.57, 1092.66 495.69 C 1091.06 492.81, 1090.21 491.47, 1088.49 489.18 C 1086.76 486.88, 1085.73 485.83, 1084.03 484.23 C 1082.33 482.63, 1081.41 482.05, 1079.99 481.17 C 1078.57 480.28, 1078.04 479.95, 1076.91 479.79 C 1075.78 479.63, 1075.05 479.99, 1074.32 480.36 C 1073.59 480.73, 1073.44 481.16, 1073.26 481.65 C 1073.08 482.15, 1073.46 482.36, 1073.42 482.84 C 1073.37 483.32, 1073.13 483.45, 1073.03 484.04 C 1072.93 484.64, 1072.66 485.05, 1072.91 485.81 C 1073.16 486.57, 1073.48 486.81, 1074.28 487.83 C 1075.08 488.85, 1075.70 489.40, 1076.92 490.91 C 1078.14 492.42, 1078.88 493.41, 1080.39 495.36 C 1081.90 497.31, 1082.89 498.27, 1084.49 500.66 C 1086.08 503.04, 1086.98 504.50, 1088.35 507.29 C 1089.71 510.08, 1090.40 511.61, 1091.31 514.62 C 1092.23 517.63, 1092.55 519.23, 1092.92 522.35 C 1093.30 525.48, 1093.40 527.16, 1093.20 530.24 C 1092.99 533.32, 1092.60 534.94, 1091.90 537.75 C 1091.21 540.56, 1090.75 542.00, 1089.74 544.31 C 1088.72 546.62, 1088.16 547.59, 1086.83 549.31 C 1085.50 551.03, 1084.79 551.78, 1083.09 552.91 C 1081.39 554.03, 1080.48 554.37, 1078.35 554.93 C 1076.21 555.49, 1074.97 555.74, 1072.40 555.71 C 1069.83 555.69, 1068.35 555.56, 1065.50 554.80 C 1062.65 554.05, 1061.04 553.43, 1058.15 551.94 C 1055.26 550.44, 1053.76 549.46, 1051.05 547.32 C 1048.34 545.18, 1047.03 543.89, 1044.61 541.24 C 1042.20 538.59, 1040.96 537.05, 1038.99 534.06 C 1037.02 531.08, 1036.17 529.50, 1034.77 526.30 C 1033.36 523.11, 1032.83 521.29, 1031.97 518.08 C 1031.11 514.87, 1031.60 512.87, 1030.46 510.25 C 1029.33 507.63, 1028.21 506.40, 1026.31 504.98 C 1024.41 503.56, 1023.08 503.27, 1020.96 503.15 C 1018.83 503.04, 1017.50 503.13, 1015.69 504.40 C 1013.87 505.67, 1012.90 507.02, 1011.89 509.51 C 1010.89 512.00, 1011.27 513.88, 1010.68 516.84 C 1010.08 519.81, 1009.70 521.30, 1008.92 524.33 C 1008.14 527.35, 1007.70 529.14, 1006.77 531.97 C 1005.85 534.81, 1005.09 536.20, 1004.29 538.50 C 1003.50 540.80, 1003.25 541.95, 1002.80 543.47 C 1002.35 545.00, 1002.37 545.44, 1002.04 546.13 C 1001.70 546.81, 1001.62 546.91, 1001.13 546.90 C 1000.65 546.88, 1000.44 546.76, 999.59 546.05 C 998.75 545.34, 998.11 544.75, 996.91 543.33 C 995.71 541.90, 995.01 540.95, 993.58 538.93 C 992.15 536.90, 991.20 535.73, 989.77 533.19 C 988.34 530.65, 987.59 529.18, 986.42 526.21 C 985.25 523.25, 984.69 521.57, 983.92 518.36 C 983.14 515.15, 982.85 513.42, 982.56 510.15 C 982.27 506.89, 982.31 505.11, 982.47 502.03 C 982.64 498.95, 983.21 497.35, 983.38 494.75 C 983.54 492.15, 983.60 490.94, 983.31 489.04 C 983.02 487.14, 982.64 486.44, 981.91 485.27 C 981.18 484.10, 980.87 483.71, 979.66 483.19 C 978.45 482.67, 977.16 482.47, 975.85 482.68" style="stroke: black; fill: black;"/><path d="M 1232.10,428.33 C 1230.85 429.06, 1230.59 429.76, 1229.96 431.46 C 1229.33 433.17, 1228.80 434.21, 1228.94 436.86 C 1229.09 439.52, 1229.96 441.23, 1230.68 444.73 C 1231.40 448.23, 1231.97 450.20, 1232.53 454.38 C 1233.10 458.55, 1233.18 460.85, 1233.50 465.60 C 1233.81 470.35, 1233.89 472.92, 1234.11 478.14 C 1234.34 483.35, 1234.40 486.19, 1234.62 491.69 C 1234.85 497.19, 1235.01 500.08, 1235.25 505.62 C 1235.48 511.17, 1235.63 514.12, 1235.82 519.44 C 1236.00 524.76, 1236.06 527.34, 1236.16 532.22 C 1236.26 537.10, 1236.37 539.61, 1236.33 543.84 C 1236.28 548.07, 1235.69 550.31, 1235.93 553.37 C 1236.18 556.44, 1236.49 557.58, 1237.55 559.18 C 1238.62 560.78, 1239.58 561.32, 1241.27 561.39 C 1242.97 561.46, 1244.52 561.01, 1246.04 559.53 C 1247.55 558.05, 1248.43 556.69, 1248.85 554.00 C 1249.27 551.31, 1248.27 549.50, 1248.11 546.07 C 1247.96 542.64, 1247.82 540.58, 1248.07 536.85 C 1248.32 533.13, 1248.64 531.11, 1249.36 527.43 C 1250.08 523.74, 1250.51 521.89, 1251.69 518.43 C 1252.87 514.96, 1253.63 513.23, 1255.25 510.10 C 1256.86 506.98, 1257.78 505.39, 1259.77 502.82 C 1261.76 500.25, 1262.98 499.08, 1265.20 497.25 C 1267.42 495.43, 1268.68 494.76, 1270.87 493.71 C 1273.07 492.65, 1274.17 492.31, 1276.18 491.98 C 1278.18 491.64, 1279.10 491.60, 1280.91 492.03 C 1282.73 492.46, 1283.52 492.97, 1285.25 494.13 C 1286.98 495.29, 1287.89 495.86, 1289.56 497.83 C 1291.22 499.81, 1292.11 501.09, 1293.57 503.99 C 1295.03 506.89, 1295.76 508.71, 1296.86 512.34 C 1297.97 515.96, 1298.35 518.05, 1299.08 522.10 C 1299.82 526.16, 1300.06 528.48, 1300.53 532.62 C 1301.00 536.75, 1301.13 538.84, 1301.44 542.78 C 1301.75 546.72, 1301.78 548.72, 1302.07 552.33 C 1302.36 555.94, 1302.08 557.95, 1302.89 560.85 C 1303.70 563.74, 1304.75 565.08, 1306.12 566.80 C 1307.49 568.51, 1308.43 569.18, 1309.74 569.42 C 1311.05 569.67, 1311.99 569.12, 1312.69 568.04 C 1313.38 566.97, 1313.24 565.98, 1313.20 564.05 C 1313.15 562.13, 1313.05 560.99, 1312.47 558.41 C 1311.88 555.83, 1310.99 554.44, 1310.29 551.15 C 1309.59 547.87, 1309.47 545.88, 1308.97 542.00 C 1308.48 538.13, 1308.31 535.99, 1307.81 531.77 C 1307.31 527.55, 1307.11 525.18, 1306.46 520.88 C 1305.81 516.58, 1305.53 514.35, 1304.54 510.26 C 1303.56 506.17, 1303.02 504.08, 1301.54 500.42 C 1300.06 496.76, 1299.29 494.89, 1297.15 491.95 C 1295.01 489.02, 1293.69 487.62, 1290.85 485.73 C 1288.00 483.85, 1286.20 483.19, 1282.94 482.54 C 1279.68 481.89, 1277.84 481.91, 1274.56 482.47 C 1271.28 483.03, 1269.58 483.70, 1266.55 485.35 C 1263.52 487.00, 1262.09 488.19, 1259.41 490.71 C 1256.73 493.23, 1255.39 494.77, 1253.15 497.94 C 1250.91 501.12, 1249.98 502.98, 1248.22 506.57 C 1246.47 510.17, 1245.69 512.09, 1244.37 515.91 C 1243.04 519.73, 1242.58 521.74, 1241.60 525.69 C 1240.61 529.63, 1240.27 531.75, 1239.45 535.64 C 1238.62 539.53, 1238.22 541.64, 1237.46 545.14 C 1236.69 548.63, 1235.58 550.40, 1235.64 553.11 C 1235.69 555.82, 1236.50 557.23, 1237.72 558.68 C 1238.93 560.13, 1240.40 560.46, 1241.72 560.37 C 1243.03 560.27, 1243.67 559.73, 1244.29 558.20 C 1244.90 556.67, 1244.99 555.67, 1244.78 552.71 C 1244.58 549.76, 1243.79 547.60, 1243.26 543.44 C 1242.74 539.28, 1242.53 536.78, 1242.17 531.94 C 1241.80 527.09, 1241.72 524.50, 1241.45 519.20 C 1241.18 513.89, 1241.03 510.93, 1240.80 505.39 C 1240.57 499.85, 1240.43 496.99, 1240.30 491.51 C 1240.17 486.03, 1240.18 483.21, 1240.16 477.99 C 1240.13 472.77, 1240.14 470.23, 1240.19 465.41 C 1240.23 460.60, 1240.30 458.21, 1240.37 453.91 C 1240.43 449.62, 1240.37 447.52, 1240.51 443.92 C 1240.64 440.31, 1241.32 438.56, 1241.03 435.89 C 1240.75 433.21, 1240.04 432.16, 1239.07 430.55 C 1238.11 428.94, 1237.61 428.27, 1236.21 427.83 C 1234.82 427.38, 1233.35 427.61, 1232.10 428.33" style="stroke: black; fill: black;"/><path d="M 1330.89,543.97 C 1332.00 544.98, 1332.90 545.09, 1334.78 545.14 C 1336.66 545.19, 1337.91 545.12, 1340.30 544.23 C 1342.69 543.33, 1344.11 542.28, 1346.73 540.65 C 1349.35 539.03, 1350.66 537.93, 1353.40 536.10 C 1356.15 534.28, 1357.64 533.35, 1360.43 531.53 C 1363.22 529.72, 1364.85 528.99, 1367.36 527.02 C 1369.86 525.05, 1371.14 523.95, 1372.97 521.68 C 1374.79 519.41, 1375.59 518.17, 1376.47 515.67 C 1377.35 513.18, 1377.64 511.73, 1377.36 509.20 C 1377.09 506.68, 1376.56 505.18, 1375.10 503.04 C 1373.63 500.91, 1372.45 499.89, 1370.03 498.53 C 1367.61 497.17, 1366.05 496.63, 1362.99 496.24 C 1359.94 495.84, 1358.07 495.98, 1354.76 496.57 C 1351.45 497.16, 1349.77 497.87, 1346.45 499.20 C 1343.13 500.53, 1341.38 501.28, 1338.16 503.24 C 1334.94 505.19, 1333.13 506.34, 1330.34 508.96 C 1327.55 511.59, 1326.25 513.22, 1324.19 516.38 C 1322.13 519.54, 1321.09 521.20, 1320.05 524.76 C 1319.01 528.32, 1318.74 530.45, 1318.98 534.20 C 1319.23 537.95, 1319.69 539.99, 1321.28 543.51 C 1322.88 547.03, 1324.07 548.76, 1326.93 551.80 C 1329.80 554.84, 1331.71 556.34, 1335.60 558.71 C 1339.49 561.07, 1341.76 561.99, 1346.39 563.63 C 1351.01 565.27, 1353.67 565.94, 1358.73 566.91 C 1363.78 567.87, 1366.48 568.16, 1371.66 568.47 C 1376.84 568.77, 1379.66 568.76, 1384.62 568.43 C 1389.58 568.10, 1392.04 567.74, 1396.45 566.84 C 1400.87 565.93, 1402.93 565.36, 1406.70 563.91 C 1410.47 562.47, 1412.29 561.65, 1415.30 559.63 C 1418.32 557.60, 1419.72 556.40, 1421.79 553.80 C 1423.85 551.20, 1424.52 549.60, 1425.64 546.63 C 1426.77 543.66, 1427.05 542.02, 1427.40 538.95 C 1427.75 535.89, 1427.70 534.22, 1427.41 531.30 C 1427.12 528.38, 1426.67 526.82, 1425.97 524.34 C 1425.26 521.87, 1425.03 520.58, 1423.91 518.91 C 1422.78 517.24, 1422.03 516.46, 1420.33 515.99 C 1418.63 515.51, 1417.12 515.69, 1415.41 516.56 C 1413.70 517.42, 1412.61 518.42, 1411.78 520.32 C 1410.95 522.22, 1410.94 523.56, 1411.26 526.04 C 1411.57 528.53, 1412.50 529.95, 1413.36 532.73 C 1414.21 535.50, 1414.81 537.03, 1415.54 539.92 C 1416.26 542.81, 1416.38 544.46, 1416.98 547.19 C 1417.58 549.92, 1417.96 551.31, 1418.54 553.57 C 1419.13 555.83, 1419.07 556.97, 1419.89 558.50 C 1420.71 560.04, 1421.23 560.78, 1422.65 561.24 C 1424.07 561.70, 1425.45 561.54, 1426.99 560.80 C 1428.54 560.07, 1429.63 559.26, 1430.38 557.56 C 1431.13 555.85, 1431.11 554.58, 1430.75 552.27 C 1430.39 549.96, 1429.50 548.59, 1428.58 545.99 C 1427.67 543.40, 1426.94 541.97, 1426.17 539.30 C 1425.41 536.62, 1425.17 535.17, 1424.75 532.62 C 1424.33 530.07, 1424.09 528.84, 1424.06 526.55 C 1424.03 524.25, 1424.17 523.12, 1424.61 521.14 C 1425.04 519.15, 1425.29 518.25, 1426.23 516.63 C 1427.17 515.00, 1427.80 514.34, 1429.31 513.03 C 1430.83 511.71, 1431.71 511.15, 1433.81 510.05 C 1435.91 508.94, 1437.05 508.31, 1439.82 507.52 C 1442.60 506.74, 1444.31 506.43, 1447.68 506.13 C 1451.06 505.83, 1452.95 505.75, 1456.70 506.00 C 1460.45 506.26, 1462.58 506.59, 1466.46 507.39 C 1470.33 508.20, 1472.63 508.98, 1476.08 510.01 C 1479.52 511.04, 1480.99 512.10, 1483.67 512.55 C 1486.36 513.00, 1488.08 512.98, 1489.52 512.26 C 1490.95 511.53, 1491.45 510.44, 1490.85 508.90 C 1490.25 507.37, 1489.02 505.96, 1486.52 504.56 C 1484.02 503.16, 1482.06 502.87, 1478.35 501.90 C 1474.63 500.92, 1472.14 500.46, 1467.95 499.69 C 1463.76 498.93, 1461.52 498.51, 1457.38 498.08 C 1453.25 497.65, 1451.20 497.51, 1447.28 497.55 C 1443.35 497.60, 1441.37 497.65, 1437.76 498.29 C 1434.16 498.93, 1432.32 499.32, 1429.25 500.76 C 1426.19 502.19, 1424.76 503.28, 1422.44 505.46 C 1420.11 507.64, 1419.14 508.99, 1417.61 511.64 C 1416.08 514.30, 1415.56 515.78, 1414.79 518.72 C 1414.01 521.66, 1413.86 523.30, 1413.73 526.35 C 1413.59 529.39, 1413.84 530.93, 1414.12 533.96 C 1414.40 537.00, 1414.75 538.49, 1415.13 541.52 C 1415.51 544.54, 1415.61 546.28, 1416.02 549.08 C 1416.43 551.88, 1416.47 553.38, 1417.18 555.52 C 1417.88 557.67, 1418.22 558.64, 1419.56 559.79 C 1420.90 560.93, 1422.22 561.24, 1423.87 561.25 C 1425.52 561.26, 1426.77 560.77, 1427.82 559.85 C 1428.87 558.93, 1428.94 558.29, 1429.13 556.66 C 1429.32 555.03, 1429.04 554.01, 1428.77 551.69 C 1428.51 549.36, 1428.31 547.83, 1427.81 545.04 C 1427.32 542.26, 1426.76 540.72, 1426.31 537.76 C 1425.87 534.81, 1425.86 533.15, 1425.58 530.27 C 1425.30 527.39, 1425.52 525.64, 1424.90 523.36 C 1424.28 521.07, 1423.72 520.05, 1422.47 518.86 C 1421.21 517.66, 1420.11 517.35, 1418.62 517.37 C 1417.13 517.39, 1415.85 517.93, 1414.99 518.96 C 1414.13 519.99, 1414.21 520.91, 1414.32 522.52 C 1414.43 524.13, 1415.09 525.03, 1415.54 527.03 C 1416.00 529.03, 1416.28 530.30, 1416.59 532.54 C 1416.90 534.78, 1417.09 536.03, 1417.07 538.23 C 1417.06 540.44, 1417.08 541.55, 1416.52 543.55 C 1415.96 545.55, 1415.52 546.38, 1414.28 548.25 C 1413.04 550.12, 1412.41 551.13, 1410.31 552.91 C 1408.22 554.68, 1406.87 555.64, 1403.80 557.12 C 1400.73 558.60, 1398.89 559.30, 1394.96 560.31 C 1391.03 561.32, 1388.73 561.76, 1384.14 562.16 C 1379.56 562.56, 1376.86 562.59, 1372.03 562.30 C 1367.20 562.01, 1364.63 561.71, 1359.98 560.71 C 1355.33 559.71, 1352.86 558.94, 1348.78 557.29 C 1344.70 555.65, 1342.76 554.67, 1339.59 552.50 C 1336.43 550.32, 1335.02 548.90, 1332.95 546.42 C 1330.88 543.95, 1330.24 542.66, 1329.24 540.11 C 1328.23 537.56, 1328.05 536.24, 1327.93 533.68 C 1327.81 531.12, 1327.91 529.78, 1328.65 527.30 C 1329.39 524.82, 1330.09 523.62, 1331.65 521.27 C 1333.20 518.92, 1334.21 517.56, 1336.43 515.56 C 1338.65 513.55, 1340.09 512.65, 1342.73 511.26 C 1345.38 509.87, 1346.95 509.33, 1349.66 508.61 C 1352.37 507.88, 1353.84 507.83, 1356.28 507.63 C 1358.72 507.44, 1359.95 507.52, 1361.86 507.62 C 1363.77 507.72, 1364.55 507.88, 1365.82 508.14 C 1367.09 508.40, 1367.55 508.54, 1368.22 508.91 C 1368.89 509.27, 1369.13 509.37, 1369.15 509.98 C 1369.17 510.58, 1369.05 510.94, 1368.33 511.95 C 1367.60 512.96, 1366.99 513.62, 1365.52 515.03 C 1364.06 516.43, 1363.09 517.32, 1361.01 518.98 C 1358.92 520.63, 1357.64 521.66, 1355.09 523.31 C 1352.54 524.97, 1351.02 525.87, 1348.26 527.24 C 1345.49 528.62, 1343.93 529.05, 1341.25 530.20 C 1338.58 531.35, 1336.95 531.73, 1334.88 532.99 C 1332.80 534.25, 1332.01 535.08, 1330.88 536.49 C 1329.74 537.91, 1329.20 538.57, 1329.20 540.07 C 1329.20 541.56, 1329.77 542.95, 1330.89 543.97" style="stroke: black; fill: black;"/><path d="M 1503.76,559.04 C 1504.93 560.00, 1505.77 559.92, 1507.71 559.99 C 1509.66 560.05, 1510.89 560.21, 1513.49 559.35 C 1516.09 558.50, 1517.70 557.30, 1520.73 555.70 C 1523.75 554.11, 1525.46 553.06, 1528.63 551.37 C 1531.79 549.68, 1533.44 548.87, 1536.56 547.24 C 1539.68 545.62, 1541.35 544.85, 1544.23 543.24 C 1547.12 541.62, 1548.63 540.95, 1550.99 539.15 C 1553.35 537.36, 1554.39 536.40, 1556.02 534.26 C 1557.66 532.13, 1558.53 530.96, 1559.17 528.49 C 1559.82 526.01, 1559.92 524.37, 1559.26 521.88 C 1558.60 519.39, 1557.77 518.02, 1555.89 516.05 C 1554.01 514.07, 1552.74 513.08, 1549.87 512.00 C 1547.00 510.93, 1545.14 510.77, 1541.53 510.67 C 1537.93 510.58, 1535.86 510.90, 1531.84 511.52 C 1527.82 512.15, 1525.65 512.59, 1521.43 513.79 C 1517.22 514.99, 1514.93 515.75, 1510.77 517.52 C 1506.60 519.28, 1504.34 520.33, 1500.60 522.64 C 1496.87 524.95, 1495.06 526.25, 1492.09 529.07 C 1489.13 531.90, 1487.72 533.45, 1485.77 536.76 C 1483.82 540.06, 1482.87 541.94, 1482.34 545.60 C 1481.81 549.27, 1481.90 551.49, 1483.11 555.09 C 1484.31 558.69, 1485.54 560.49, 1488.36 563.61 C 1491.18 566.73, 1493.04 568.15, 1497.20 570.69 C 1501.36 573.24, 1503.85 574.35, 1509.17 576.34 C 1514.50 578.32, 1517.62 579.24, 1523.83 580.62 C 1530.05 582.00, 1533.63 582.45, 1540.26 583.26 C 1546.89 584.07, 1550.43 584.31, 1556.99 584.67 C 1563.55 585.03, 1566.92 585.06, 1573.06 585.04 C 1579.19 585.01, 1582.59 584.81, 1587.66 584.55 C 1592.74 584.28, 1595.04 584.46, 1598.41 583.73 C 1601.78 582.99, 1603.43 582.07, 1604.51 580.87 C 1605.60 579.67, 1605.24 578.40, 1603.84 577.74 C 1602.45 577.07, 1600.86 577.32, 1597.54 577.53 C 1594.21 577.74, 1592.14 578.27, 1587.22 578.77 C 1582.31 579.27, 1578.95 579.80, 1572.95 580.03 C 1566.95 580.27, 1563.65 580.26, 1557.23 579.94 C 1550.82 579.62, 1547.31 579.33, 1540.88 578.44 C 1534.44 577.56, 1530.95 577.05, 1525.06 575.53 C 1519.16 574.01, 1516.21 572.96, 1511.40 570.84 C 1506.59 568.73, 1504.41 567.42, 1501.01 564.95 C 1497.61 562.48, 1496.34 560.98, 1494.40 558.49 C 1492.46 555.99, 1492.00 554.80, 1491.31 552.47 C 1490.62 550.14, 1490.62 549.17, 1490.95 546.84 C 1491.27 544.50, 1491.63 543.27, 1492.94 540.81 C 1494.25 538.35, 1495.18 536.94, 1497.49 534.55 C 1499.81 532.17, 1501.30 530.93, 1504.52 528.89 C 1507.74 526.84, 1509.82 525.83, 1513.58 524.33 C 1517.34 522.82, 1519.51 522.15, 1523.32 521.35 C 1527.13 520.54, 1529.17 520.35, 1532.64 520.29 C 1536.11 520.23, 1537.91 520.61, 1540.67 521.05 C 1543.42 521.48, 1544.59 521.99, 1546.39 522.47 C 1548.20 522.94, 1548.72 523.01, 1549.68 523.42 C 1550.64 523.83, 1550.87 524.03, 1551.19 524.52 C 1551.50 525.00, 1551.65 525.16, 1551.25 525.85 C 1550.84 526.55, 1550.41 526.96, 1549.15 528.01 C 1547.89 529.06, 1546.91 529.66, 1544.95 531.10 C 1543.00 532.54, 1541.89 533.56, 1539.38 535.19 C 1536.87 536.82, 1535.36 537.73, 1532.40 539.27 C 1529.45 540.82, 1527.78 541.60, 1524.61 542.91 C 1521.45 544.23, 1519.67 544.86, 1516.57 545.84 C 1513.48 546.82, 1511.61 546.74, 1509.11 547.82 C 1506.62 548.90, 1505.53 549.76, 1504.08 551.23 C 1502.63 552.70, 1501.95 553.61, 1501.88 555.17 C 1501.82 556.73, 1502.60 558.07, 1503.76 559.04" style="stroke: black; fill: black;"/><path d="M 1646.98,459.30 C 1645.68 460.02, 1645.31 460.77, 1644.63 462.46 C 1643.96 464.15, 1643.62 465.31, 1643.60 467.76 C 1643.59 470.21, 1644.11 471.73, 1644.55 474.69 C 1645.00 477.65, 1645.45 479.19, 1645.84 482.55 C 1646.24 485.92, 1646.33 487.79, 1646.52 491.51 C 1646.72 495.23, 1646.66 497.25, 1646.81 501.18 C 1646.96 505.10, 1647.15 507.19, 1647.29 511.13 C 1647.43 515.08, 1647.47 517.08, 1647.51 520.90 C 1647.54 524.71, 1647.35 526.91, 1647.46 530.21 C 1647.57 533.50, 1647.50 534.94, 1648.07 537.38 C 1648.64 539.82, 1649.11 541.38, 1650.30 542.39 C 1651.50 543.41, 1652.82 543.48, 1654.04 542.44 C 1655.27 541.41, 1655.94 539.74, 1656.41 537.22 C 1656.88 534.69, 1656.57 533.16, 1656.40 529.83 C 1656.23 526.50, 1655.84 524.37, 1655.57 520.58 C 1655.30 516.78, 1655.21 514.75, 1655.06 510.84 C 1654.90 506.93, 1654.80 504.90, 1654.79 501.01 C 1654.78 497.12, 1654.89 495.15, 1654.99 491.41 C 1655.10 487.66, 1655.11 485.73, 1655.30 482.27 C 1655.49 478.81, 1655.81 477.19, 1655.95 474.11 C 1656.09 471.04, 1656.36 469.39, 1656.00 466.89 C 1655.64 464.39, 1655.11 463.22, 1654.14 461.61 C 1653.17 460.00, 1652.58 459.31, 1651.15 458.85 C 1649.72 458.38, 1648.28 458.58, 1646.98 459.30" style="stroke: black; fill: black;"/><path d="M 1646.51,570.70 C 1645.11 569.89, 1643.76 569.75, 1643.35 570.26 C 1642.94 570.77, 1643.37 572.05, 1644.46 573.25 C 1645.55 574.45, 1647.38 575.54, 1648.80 576.27 C 1650.22 576.99, 1651.24 577.27, 1651.56 576.88 C 1651.87 576.49, 1651.39 575.55, 1650.38 574.31 C 1649.37 573.07, 1647.92 571.51, 1646.51 570.70" style="stroke: black; fill: black;"/></svg>