<svg width="38.33483" height="23.37111" xmlns="http://www.w3.org/2000/svg"><defs/><g transform="matrix(1.3793147 0 0 1.3793147 4.524886 6.896574)"><g><g transform="matrix(1 0 0 1 0 7.944)"><g transform="matrix(1 0 0 -1 0 0)"><g><path fill="#ffffff" stroke="none" d="M 0.72 6.768 L 2.676 6.768 L 2.676 1.2360001 L 0.828 1.2360001 L 0.828 0 L 5.904 0 L 5.904 1.2360001 L 4.056 1.2360001 L 4.056 9.156 L 2.676 9.156 C 2.676 9.156 2.676 7.848 0.72 7.848 Z"/></g></g></g><g transform="matrix(1 0 0 1 6.444 7.944)"><g transform="matrix(1 0 0 -1 0 0)"><g><path fill="#ffffff" stroke="none" d="M 0.84 4.572 C 0.84 1.968 1.656 -0.132 4.14 -0.132 C 6.624 -0.132 7.452 1.968 7.452 4.572 C 7.452 7.176 6.624 9.288 4.14 9.288 C 1.656 9.288 0.84 7.176 0.84 4.572 Z M 2.256 4.572 C 2.256 6.48 2.628 8.028 4.14 8.028 C 5.652 8.028 6.036 6.48 6.036 4.572 C 6.036 2.664 5.652 1.128 4.14 1.128 C 2.628 1.128 2.256 2.664 2.256 4.572 Z"/></g></g></g><g transform="matrix(1 0 0 1 14.736 2.544)"><g transform="matrix(1 0 0 -1 0 0)"><g><path fill="#ffffff" stroke="none" d="M 0.52919996 4.3343997 C 0.52919996 3.1752 1.2432 2.3604 2.5116 2.3604 C 3.1164 2.3604 3.5784 2.5956 3.8388 2.7719996 C 3.8388 1.5372 3.2844 0.8904 2.2344 0.8904 C 1.8144 0.8904 1.3607998 1.0164 0.8568 1.26 L 0.8568 0.168 C 1.3271999 -0.0168 1.8563999 -0.0924 2.2596 -0.0924 C 4.1916 -0.0924 4.9644 1.4112 4.9644 3.4188 C 4.9644 5.25 4.2672 6.5016 2.7132 6.5016 C 1.3271999 6.5016 0.52919996 5.5188 0.52919996 4.3343997 Z M 1.6716 4.4268 C 1.6716 5.0652 2.0075998 5.543999 2.688 5.543999 C 3.5028 5.543999 3.8219998 4.7963996 3.8303998 3.6539996 C 3.6204 3.4608 3.2675996 3.2759998 2.7803996 3.2759998 C 2.0075998 3.2759998 1.6716 3.7715998 1.6716 4.4268 Z"/></g></g></g></g></g></svg>