<svg width="39.699833" height="23.37111" xmlns="http://www.w3.org/2000/svg"><defs/><g transform="matrix(1.3793147 0 0 1.3793147 4.6860056 6.896574)"><g><g transform="matrix(1 0 0 1 0 7.944)"><g transform="matrix(1 0 0 -1 0 0)"><g><path fill="#ffffff" stroke="none" d="M 0.72 6.768 L 2.676 6.768 L 2.676 1.2360001 L 0.828 1.2360001 L 0.828 0 L 5.904 0 L 5.904 1.2360001 L 4.056 1.2360001 L 4.056 9.156 L 2.676 9.156 C 2.676 9.156 2.676 7.848 0.72 7.848 Z"/></g></g></g><g transform="matrix(1 0 0 1 6.444 7.944)"><g transform="matrix(1 0 0 -1 0 0)"><g><path fill="#ffffff" stroke="none" d="M 0.84 4.572 C 0.84 1.968 1.656 -0.132 4.14 -0.132 C 6.624 -0.132 7.452 1.968 7.452 4.572 C 7.452 7.176 6.624 9.288 4.14 9.288 C 1.656 9.288 0.84 7.176 0.84 4.572 Z M 2.256 4.572 C 2.256 6.48 2.628 8.028 4.14 8.028 C 5.652 8.028 6.036 6.48 6.036 4.572 C 6.036 2.664 5.652 1.128 4.14 1.128 C 2.628 1.128 2.256 2.664 2.256 4.572 Z"/></g></g></g><g transform="matrix(1 0 0 1 14.736 2.544)"><g transform="matrix(1 0 0 -1 0 0)"><g><path fill="#ffffff" stroke="none" d="M -0.36119995 -1.9572 C -0.3276 -1.9572 -0.0672 -1.974 0 -1.974 C 0.9912 -1.974 1.6464 -1.68 2.7215996 0 L 5.628 4.578 L 4.3764 4.578 L 2.856 1.8984 C 2.6627998 1.5539998 2.52 1.2852 2.5031998 1.1927999 L 2.478 1.1927999 C 2.4947999 1.2432 2.5116 1.3692 2.5116 1.5287999 C 2.5116 1.6296 2.5031998 1.7556 2.4947999 1.8984 L 2.3772 4.578 L 1.1927999 4.578 L 1.6464 0.042 C 1.3188 -0.63839996 0.756 -0.9912 0.28559998 -0.9912 C 0.1764 -0.9912 -0.0924 -0.9744 -0.0924 -0.9744 Z"/></g></g></g></g></g></svg>