<svg width="33.431667" height="23.37111" xmlns="http://www.w3.org/2000/svg"><defs/><g transform="matrix(1.3793147 0 0 1.3793147 3.9461362 6.896574)"><g><g transform="matrix(1 0 0 1 0 7.944)"><g transform="matrix(1 0 0 -1 0 0)"><g><path fill="#ffffff" stroke="none" d="M 0.72 0 L 6.132 0 L 6.132 1.2360001 L 2.364 1.2360001 L 2.328 1.272 C 4.86 3.684 6 5.052 6 6.588 C 6 8.52 4.776 9.3 3.192 9.3 C 2.328 9.3 1.476 9 0.852 8.556 L 0.852 7.2 C 1.404 7.704 2.2680001 8.064 3.048 8.064 C 3.888 8.064 4.596 7.656 4.596 6.588 C 4.596 5.184 3.024 3.66 0.72 1.476 Z"/></g></g></g><g transform="matrix(1 0 0 1 6.972 2.544)"><g transform="matrix(1 0 0 -1 0 0)"><g><path fill="#ffffff" stroke="none" d="M 0.588 0.252 C 0.588 0.252 1.0835999 -0.0924 2.0496 -0.0924 C 3.3432 -0.0924 4.3596 0.588 4.3596 1.8144 C 4.3596 2.6711998 3.906 3.1583996 3.3179996 3.3432 L 3.3179996 3.36 C 3.8976 3.612 4.2672 4.1412 4.2672 4.8803997 C 4.2672 5.8296 3.5616 6.5016 2.2847998 6.5016 C 1.68 6.5016 1.0668 6.3588 0.7056 6.1572 L 0.7056 5.2247996 C 0.7056 5.2247996 1.3019999 5.6364 2.1588 5.6364 C 2.856 5.6364 3.2844 5.3508 3.2844 4.7627997 C 3.2844 3.9395998 2.3855999 3.7211998 1.7723998 3.7211998 L 1.1508 3.7211998 L 1.1508 2.8728 L 1.7723998 2.8728 C 2.5368 2.8728 3.3767996 2.7215996 3.3767996 1.8396 C 3.3767996 1.176 2.8224 0.7728 2.0748 0.7728 C 1.1675999 0.7728 0.588 1.2096 0.588 1.2096 Z"/></g></g></g><g transform="matrix(1 0 0 1 11.7516 2.544)"><g transform="matrix(1 0 0 -1 0 0)"><g><path fill="#ffffff" stroke="none" d="M 0.588 3.2004 C 0.588 1.3776 1.1592 -0.0924 2.898 -0.0924 C 4.6368 -0.0924 5.2163997 1.3776 5.2163997 3.2004 C 5.2163997 5.0232 4.6368 6.5016 2.898 6.5016 C 1.1592 6.5016 0.588 5.0232 0.588 3.2004 Z M 1.5791998 3.2004 C 1.5791998 4.536 1.8396 5.6196 2.898 5.6196 C 3.9564 5.6196 4.2251997 4.536 4.2251997 3.2004 C 4.2251997 1.8648 3.9564 0.7895999 2.898 0.7895999 C 1.8396 0.7895999 1.5791998 1.8648 1.5791998 3.2004 Z"/></g></g></g></g></g></svg>