<svg width="25.302334" height="23.37111" xmlns="http://www.w3.org/2000/svg"><defs/><g transform="matrix(1.3793147 0 0 1.3793147 2.9865837 6.896574)"><g><g transform="matrix(1 0 0 1 0 7.944)"><g transform="matrix(1 0 0 -1 0 0)"><g><path fill="#ffffff" stroke="none" d="M 0.72 0 L 6.132 0 L 6.132 1.2360001 L 2.364 1.2360001 L 2.328 1.272 C 4.86 3.684 6 5.052 6 6.588 C 6 8.52 4.776 9.3 3.192 9.3 C 2.328 9.3 1.476 9 0.852 8.556 L 0.852 7.2 C 1.404 7.704 2.2680001 8.064 3.048 8.064 C 3.888 8.064 4.596 7.656 4.596 6.588 C 4.596 5.184 3.024 3.66 0.72 1.476 Z"/></g></g></g><g transform="matrix(1 0 0 1 6.972 2.544)"><g transform="matrix(1 0 0 -1 0 0)"><g><path fill="#ffffff" stroke="none" d="M 0 0 L 1.26 0 L 2.5451999 1.5372 L 2.5704 1.5372 L 3.1079996 0 L 4.284 0 L 3.3684 2.2428 L 5.443199 4.5695996 L 4.1664 4.578 L 3.024 3.1667998 L 2.9987996 3.1667998 L 2.5116 4.578 L 1.3271999 4.578 L 2.1671999 2.4527998 Z"/></g></g></g></g></g></svg>