<?xml version="1.0" standalone="no"?>
<!DOCTYPE svg PUBLIC "-//W3C//DTD SVG 20010904//EN" "http://www.w3.org/TR/2001/REC-SVG-20010904/DTD/svg10.dtd">
<!-- Created using Krita: https://krita.org -->
<svg xmlns="http://www.w3.org/2000/svg" 
    xmlns:xlink="http://www.w3.org/1999/xlink"
    xmlns:krita="http://krita.org/namespaces/svg/krita"
    xmlns:sodipodi="http://sodipodi.sourceforge.net/DTD/sodipodi-0.dtd"
    width="722.16pt"
    height="138.96pt"
    viewBox="0 0 722.16 138.96">
<defs/>
<path id="shape0" transform="matrix(0.72 0 0 0.72 1.14607401292179 3.95999999999993)" fill="#E0E0E0" stroke="#E0E0E0" stroke-width="1" stroke-linecap="butt" stroke-linejoin="miter" stroke-miterlimit="2" d="M21.9185 14.3105C26.1228 -12.1305 19.8132 33.272 19.3816 35.9369C18.958 38.6017 18.7825 40.2673 18.4468 44.796C18.1031 49.3246 17.4401 52.3068 16.9366 58.5803C16.4331 64.8538 15.6502 68.6132 15.0028 76.1795C14.3474 83.7459 13.9158 88.219 13.2285 96.404C12.5411 104.589 12.1495 109.276 11.5661 117.104C10.9826 124.932 10.6869 129.128 10.3033 135.56C9.92761 141.992 9.57594 145.038 9.64787 149.273C9.71981 153.508 9.63189 155.372 10.6629 156.752C11.7019 158.132 13.4603 158.204 14.811 156.181C16.1617 154.151 16.0818 151.843 17.4165 146.616C18.7593 141.39 20.2292 137.749 22.2753 130.04C24.3293 122.339 25.7359 117.744 28.5812 108.465C31.4265 99.1854 33.1369 94.2881 36.6616 84.5645C40.1862 74.833 42.1126 68.7944 46.0608 59.6339C50.0091 50.4814 51.6907 46.3376 55.7029 38.6047C59.7071 30.8718 61.6468 26.5146 65.3393 20.7883C69.0318 15.0621 70.926 12.6589 73.9552 9.25645C76.9843 5.85398 78.7187 5.08466 80.477 3.76016C82.2433 2.43565 82.4911 2.30876 82.7548 2.626C83.0266 2.94325 82.4511 3.3636 81.8277 5.34639C81.2043 7.32125 81.2842 8.9392 79.6458 12.5082C78.0073 16.0772 76.5902 17.8032 73.4411 22.4668C70.2921 27.1223 68.3445 29.9379 63.8847 35.0694C59.4329 40.2088 56.6435 43.8442 51.3765 48.8726C46.1094 53.9089 43.0084 55.1481 37.5735 60.4844C32.1306 64.8545 29.1654 67.4553 24.1861 70.7388C19.2068 74.0223 16.6573 75.3468 12.685 77.393C8.71276 79.4392 6.78658 79.6534 4.34089 80.9541C1.8872 82.2548 1.1439 82.6117 0.440568 83.8886C-0.254775 85.1655 -0.134888 86.0697 0.856176 87.3466C1.85523 88.6235 2.8463 89.139 5.41187 90.2811C7.98544 91.4153 9.96757 91.5184 13.6841 93.0491C17.4085 94.5878 19.6226 97.186 23.8506 99.5812C28.0866 101.984 30.5083 103.869 34.7043 107.034C38.9004 110.199 40.4834 112.488 44.2239 116.137C47.9644 119.777 50.5373 122.265 53.5664 125.992C56.5955 129.72 58.2657 130.474 60.4396 133.861C62.6136 137.248 64.7942 136.527 66.2568 139.113C67.7115 141.698 69.2611 142.44 70.3241 143.709C71.3791 144.985 70.1418 140.825 70.7892 143.291C71.4366 143.402 71.4287 142.858 71.2851 143.909C71.445 142.779 71.6608 144.464 71.1333 142.917C70.6138 141.363 69.5993 140.747 68.0647 138.138C66.5302 135.528 65.2993 133.91 62.8456 130.571C60.392 127.24 58.9773 125.202 55.7963 121.451C52.6153 117.699 50.7611 115.55 46.9247 111.814C43.0963 108.079 40.8664 106.112 36.6304 102.773C32.3944 99.4416 29.9567 97.8554 25.7447 95.135C21.5327 92.4146 20.1412 91.8862 16.4886 89.8876C12.8361 87.8969 10.0955 86.0935 7.48192 85.1655C4.86839 84.2455 3.59759 84.4755 2.49463 84.5469C1.39966 84.6183 1.26379 85.5542 1.98311 85.5145C2.70243 85.4828 3.66952 85.5224 6.08324 84.3804C8.49696 83.2383 10.1834 82.1596 14.0597 79.812C17.944 77.4565 20.5096 76.0606 25.4809 72.6185C30.4442 69.1684 33.4254 67.027 38.8923 62.5855C44.3671 58.1362 47.4921 55.4396 52.8391 50.3954C58.194 45.3511 61.0234 42.4563 65.667 37.3486C70.3026 32.2489 72.5485 29.5047 76.0412 24.8808C79.5339 20.257 81.0445 17.9887 83.1145 14.2372C85.1766 10.4858 86.1836 8.80437 86.3834 6.13157C86.5752 3.45877 85.6401 1.8884 84.0896 0.857355C82.539 -0.181627 81.0365 -0.419561 78.6307 0.952529C76.225 2.32462 75.0501 3.94257 72.0769 7.70987C69.1037 11.4851 66.7545 12.7121 63.1579 18.6049C59.5613 24.4978 57.603 28.9996 53.6387 36.8118C49.6745 44.6239 47.4526 49.6895 43.4963 58.8896C39.548 68.0818 37.3183 73.0492 33.7377 82.7887C30.157 92.5281 29.0376 98.3392 26.0404 107.595C23.0432 116.851 21.6525 121.792 19.3587 129.437C17.0649 137.091 16.1298 140.755 14.5712 145.831C13.0207 150.907 11.9977 152.771 11.598 154.825C11.1984 156.879 12.4133 157.212 12.5811 156.102C12.7489 154.984 13.0681 155.138 13.0441 151.053C13.0202 146.961 13.6189 142.056 13.8187 135.655C14.0265 129.255 14.9052 125.059 14.5223 117.239C15.0578 109.419 15.9046 105.102 15.4262 96.5626C16.1535 88.3935 17.8308 83.9203 17.7197 76.3778C18.519 68.8353 18.9506 65.0839 19.7258 58.85C20.5011 52.6081 20.3338 49.6578 21.0052 45.1767C21.6765 40.6955 21.3656 39.1172 21.5734 36.4286C21.7732 33.7399 24.2448 8.08319 23.6854 7.09179C23.1179 6.1004 20.4297 30.6309 19.6544 31.4716" sodipodi:nodetypes="ccccccccccccccccccccccccccccccccccccccccccccccccccccccccccccccccccccccccccccccccccccc"/><path id="shape1" transform="matrix(0.72 0 0 0.72 41.0476359724767 43.1875237477628)" fill="#E0E0E0" stroke="#E0E0E0" stroke-width="1" stroke-linecap="butt" stroke-linejoin="miter" stroke-miterlimit="2" d="M27.1474 52.1893C30.1074 49.2993 31.3774 47.5693 33.2974 44.1793C35.2174 40.7893 35.9174 38.8193 36.7474 35.2293C37.5774 31.6393 37.8474 29.5893 37.4574 26.2293C37.0774 22.8693 36.4574 20.9793 34.8174 18.4393C33.1674 15.8893 31.8374 14.6993 29.2374 13.4993C26.6274 12.2993 24.8074 11.8793 21.7874 12.4393C18.7774 13.0093 16.9274 13.8793 14.1774 16.3193C11.4374 18.7593 10.2274 20.7493 8.06739 24.6293C5.90739 28.4993 4.86739 31.0193 3.37739 35.6993C1.88739 40.3693 1.24739 43.2193 0.617394 48.0093C-0.0126055 52.7993 -0.192606 55.4793 0.227394 59.6393C0.647394 63.7993 0.917394 66.0993 2.71739 68.8093C4.51739 71.5193 6.31739 72.5993 9.21739 73.1793C12.1174 73.7593 14.2874 73.5693 17.2174 71.7193C20.1574 69.8593 21.3674 67.7793 23.8974 63.8993C26.4274 60.0293 27.6474 57.3393 29.8674 52.3393C32.0974 47.3293 33.2174 44.0493 35.0174 38.8793C36.8174 33.6993 37.9674 30.5093 38.8674 26.4693C39.7674 22.4193 40.0174 20.3693 39.5074 18.6493C38.9874 16.9193 37.4174 16.6993 36.2874 17.8493C35.1474 19.0093 34.2774 20.7593 33.8374 24.4093C33.4074 28.0593 33.6774 31.2393 34.1174 36.1093C34.5574 40.9893 34.9974 44.1193 36.0474 48.7893C37.0974 53.4593 37.4674 56.0293 39.3474 59.4593C41.2274 62.8993 42.5474 64.6093 45.4374 65.9793C48.3374 67.3393 50.6474 67.5793 53.8174 66.3093C56.9974 65.0293 58.4574 63.1793 61.3074 59.5993C64.1674 56.0193 65.5074 53.3493 68.0874 48.4193C70.6774 43.4793 71.9774 40.0993 74.2174 34.9093C76.4674 29.7293 78.0174 26.4093 79.3274 22.4893C80.6374 18.5593 80.9774 16.6393 80.7674 15.2893C80.5674 13.9293 79.0074 13.9893 78.2874 15.7293C77.5574 17.4693 77.3474 19.6993 77.1574 23.9793C76.9674 28.2693 77.0074 31.8393 77.3474 37.1693C77.6774 42.5093 77.9674 45.8293 78.8174 50.6593C79.6774 55.4893 79.9074 57.9693 81.6074 61.3293C83.3174 64.6893 84.6274 66.1993 87.3474 67.4493C90.0774 68.6993 92.2474 68.8793 95.2474 67.5893C98.2574 66.2893 99.6874 64.3893 102.367 60.9693C105.037 57.5593 106.277 54.9293 108.627 50.5093C110.987 46.0793 112.327 42.9093 114.117 38.8293C115.917 34.7593 117.127 32.4193 117.607 30.1293C118.077 27.8393 117.037 26.9993 116.507 27.3593C115.977 27.7093 114.927 29.0493 114.947 31.8993C114.967 34.7493 115.567 37.3893 116.607 41.6093C117.647 45.8193 118.337 48.8093 120.137 52.9593C121.937 57.0993 122.967 59.3793 125.607 62.3193C128.237 65.2593 129.957 66.7093 133.307 67.6593C136.647 68.6193 138.947 68.4993 142.317 67.0893C145.687 65.6793 147.397 64.0793 150.137 60.6293C152.867 57.1693 154.097 54.6793 155.987 49.8093C157.867 44.9393 158.667 41.7393 159.567 36.2693C160.477 30.8093 160.687 27.5593 160.497 22.4693C160.307 17.3693 159.867 14.7093 158.617 10.7793C157.377 6.84933 156.387 4.96933 154.267 2.81933C152.157 0.669328 150.247 0.279328 148.067 0.0393281C145.877 -0.200672 144.557 0.699328 143.357 1.60933C142.157 2.52933 141.897 3.69933 142.067 4.61933C142.227 5.54933 143.417 6.07933 144.167 6.22933C144.917 6.38933 145.217 5.64933 145.817 5.39933C146.417 5.13933 146.367 4.65933 147.177 4.95933C147.987 5.25933 148.607 5.36933 149.877 6.87933C151.157 8.38933 152.367 9.34933 153.537 12.5093C154.717 15.6693 155.457 18.0993 155.737 22.6993C156.027 27.2893 155.837 30.4393 154.947 35.4893C154.057 40.5293 153.147 43.5893 151.307 47.9093C149.467 52.2293 148.037 54.3493 145.757 57.0693C143.477 59.7793 142.057 60.5193 139.907 61.4893C137.757 62.4493 136.967 62.4893 135.017 61.8793C133.057 61.2593 131.957 60.6793 130.147 58.4293C128.327 56.1793 127.287 54.2893 125.947 50.6193C124.617 46.9493 124.267 44.0993 123.447 40.0693C122.627 36.0393 123.027 33.3493 121.867 30.4793C120.717 27.6093 119.557 26.3093 117.667 25.6993C115.787 25.0993 114.247 25.3193 112.437 27.4693C110.627 29.6093 110.387 32.3593 108.627 36.4293C106.857 40.4993 105.807 43.6693 103.597 47.8293C101.387 51.9893 99.8074 54.3493 97.5774 57.2393C95.3374 60.1393 94.0374 61.1093 92.4174 62.2993C90.7874 63.4793 90.6074 63.8393 89.4674 63.1693C88.3274 62.5093 87.7874 61.6493 86.6974 58.9693C85.6074 56.2993 84.7174 54.1993 84.0274 49.7893C83.3274 45.3793 83.3374 42.0693 83.2174 36.9193C83.0874 31.7593 83.5474 28.3293 83.4074 24.0193C83.2674 19.7093 83.5574 17.4393 82.5174 15.3793C81.4774 13.3193 79.8874 12.6893 78.2174 13.7193C76.5474 14.7393 75.8574 16.6393 74.1774 20.5093C72.4874 24.3793 71.8774 27.9293 69.7974 33.0493C67.7074 38.1593 66.2974 41.4693 63.7374 46.0693C61.1874 50.6793 59.4974 53.1193 57.0074 56.0793C54.5174 59.0393 53.1374 59.8093 51.2974 60.8593C49.4574 61.9193 49.1674 62.1393 47.8074 61.3393C46.4374 60.5393 45.7274 59.5993 44.4874 56.8693C43.2474 54.1293 42.3674 51.8993 41.6174 47.6693C40.8674 43.4393 40.8674 40.3293 40.7374 35.7093C40.5974 31.0893 41.1874 28.1193 40.9274 24.5793C40.6674 21.0293 40.4474 19.3493 39.4274 17.9893C38.4074 16.6393 37.0474 16.3993 35.8274 17.8193C34.5974 19.2293 34.3774 21.1793 33.2974 25.0793C32.2174 28.9893 32.0174 32.3193 30.4274 37.3493C28.8274 42.3793 21.5474 57.3993 19.1574 60.6193C16.7774 63.8393 15.2274 64.8193 13.4074 66.3593C11.5874 67.8993 11.1574 68.4193 10.0574 68.2993C8.95739 68.1893 8.75739 67.6593 7.90739 65.7993C7.06739 63.9493 6.25739 62.4493 5.83739 59.0193C5.41739 55.5893 5.28739 52.9893 5.81739 48.6693C6.34739 44.3493 6.99739 41.5893 8.48739 37.4093C9.96739 33.2293 11.1774 30.9093 13.2474 27.7493C15.3274 24.5993 16.8474 23.3993 18.8674 21.6493C20.8774 19.8993 21.7974 19.5093 23.3374 18.9893C24.8874 18.4793 25.4674 18.4993 26.5874 19.0693C27.7074 19.6393 28.1774 20.2393 28.9374 21.8493C29.6974 23.4493 30.0774 24.6493 30.3874 27.0793C30.7074 29.5193 30.9374 31.1293 30.5074 34.0093C30.0674 36.8793 29.6274 38.5693 28.2074 41.4593" sodipodi:nodetypes="cccccccccccccccccccccccccccccccccccccccccccccccccccccccccccccccccccccccccccccccccccccccccccccccccccccccccccccccccccc"/><path id="shape2" transform="matrix(0.72 0 0 0.72 157.901640186997 14.6079905330117)" fill="#E0E0E0" stroke="#E0E0E0" stroke-width="1" stroke-linecap="butt" stroke-linejoin="miter" stroke-miterlimit="2" d="M29.1436 57.1431C29.0862 56.0231 28.7512 55.2231 27.5357 54.3831C26.3202 53.5431 25.2482 52.9431 23.0661 52.9431C20.8935 52.9531 19.1803 52.9731 16.644 54.3931C14.0981 55.8231 12.6625 57.1131 10.3655 60.0831C8.06844 63.0631 6.93907 65.1131 5.15888 69.2731C3.36912 73.4331 2.46945 76.1231 1.44537 80.8731C0.411709 85.6331 -0.00941165 88.5331 0.000159267 93.0531C0.00973018 97.5631 0.0575847 100.153 1.48365 103.463C2.90972 106.783 4.40278 108.383 7.14006 109.633C9.87734 110.883 12.1169 111.053 15.1796 109.713C18.2423 108.373 19.745 106.423 22.4439 102.903C25.1429 99.3931 26.435 96.8331 28.6842 92.1331C30.9333 87.4231 32.034 84.2931 33.7089 79.3731C35.3743 74.4431 36.3792 71.5431 37.03 67.4931C37.6808 63.4431 37.8244 61.2731 36.9439 59.1231C36.0538 56.9731 34.4554 56.2831 32.6083 56.7531C30.7611 57.2231 28.9617 58.4931 27.6888 61.4631C26.4254 64.4431 26.4063 67.2631 26.2723 71.6331C26.1479 76.0131 26.2819 78.8931 27.0476 83.3431C27.8132 87.8031 28.2631 90.3931 30.1103 93.8931C31.9479 97.3931 33.2974 99.3731 36.2739 100.843C39.26 102.303 41.5666 102.443 45.0217 101.203C48.4673 99.9531 50.2092 98.2931 53.5494 94.6131C56.8897 90.9331 58.5646 88.3031 61.723 82.8231C64.8718 77.3331 66.518 73.7431 69.3319 67.2031C72.1361 60.6631 73.5048 56.6431 75.7444 50.1131C77.984 43.5931 78.9889 39.9931 80.5394 34.5831C82.0899 29.1731 83.2288 26.3931 83.5064 23.0731C83.7839 19.7531 82.9704 18.3531 81.9272 17.9931C80.8744 17.6331 79.1038 18.4631 78.2519 21.2631C77.4097 24.0631 77.7255 26.8531 77.6968 31.9931C77.6681 37.1231 77.6394 40.9331 78.0892 46.9531C78.5486 52.9731 78.8453 56.7231 79.9747 62.0731C81.1041 67.4231 81.6018 70.2531 83.7552 73.6931C85.9087 77.1331 87.6219 78.7231 90.742 79.2531C93.8525 79.7931 96.0251 78.9531 99.3367 76.3631C102.639 73.7731 104.113 71.3331 107.252 66.3031C110.401 61.2731 112.047 57.7331 115.071 51.2231C118.096 44.7231 119.723 40.5631 122.403 33.7831C125.082 27.0131 126.422 23.0331 128.471 17.3531C130.519 11.6631 131.954 8.74312 132.643 5.34312C133.323 1.94312 132.605 0.493124 131.887 0.353124C131.17 0.223124 129.935 1.08312 129.064 4.67312C128.203 8.26312 128.25 11.3731 127.552 18.3131C126.863 25.2431 126.384 29.9631 125.59 39.3431C124.795 48.7231 124.317 54.4631 123.58 65.2331C122.852 75.9931 122.489 82.1331 121.924 93.1731C121.35 104.213 121.149 110.253 120.756 120.433C120.354 130.623 120.278 135.863 119.952 144.093C119.617 152.323 119.349 156.183 119.091 161.593C118.833 167.013 118.258 169.073 118.651 171.173C119.043 173.283 120.374 173.423 121.043 172.133C121.713 170.853 121.809 169.083 122.001 164.743C122.182 160.403 121.704 157.023 121.962 150.423C122.211 143.823 122.307 139.453 123.264 131.753C124.221 124.063 124.958 119.573 126.748 111.953C128.528 104.343 129.734 100.303 132.194 93.6731C134.663 87.0331 136.233 83.8031 139.066 78.7931C141.908 73.7731 143.851 71.4431 146.387 68.5831C148.914 65.7331 150.206 64.9831 151.737 64.5231C153.278 64.0631 153.039 64.3631 154.082 66.3031C155.116 68.2331 155.968 69.8931 156.934 74.2131C157.901 78.5331 158.284 81.9931 158.906 87.8931C159.519 93.7931 159.653 97.7431 160.026 103.703C160.39 109.653 160.246 113.003 160.734 117.643C161.232 122.283 161.117 124.583 162.476 126.893C163.835 129.213 165.529 129.833 167.529 129.233C169.539 128.623 170.87 127.253 172.506 123.893C174.152 120.523 174.468 117.513 175.751 112.403C177.043 107.293 177.646 103.723 178.938 98.3331C180.22 92.9531 181.168 89.5831 182.182 85.4731C183.207 81.3631 183.877 79.4731 184.039 77.7831C184.202 76.1031 183.216 75.9631 183.006 77.0431C182.805 78.1331 182.527 79.7731 183.006 83.2131C183.484 86.6531 184.221 89.5131 185.408 94.2431C186.595 98.9631 187.389 102.143 188.949 106.853C190.5 111.553 191.16 114.213 193.189 117.763C195.218 121.313 196.357 123.133 199.094 124.593C201.822 126.053 204.004 126.283 206.866 125.063C209.718 123.843 211.144 122.143 213.374 118.513C215.614 114.883 216.437 112.103 218.026 106.913C219.624 101.723 220.313 98.2431 221.347 92.5631C222.371 86.8831 222.706 83.5131 223.165 78.5231C223.625 73.5231 224.084 70.7431 223.644 67.5931C223.203 64.4531 222.179 63.4731 220.964 62.7931C219.748 62.1231 218.562 62.6531 217.576 64.2231C216.59 65.8031 215.671 67.7131 216.025 70.6631C216.389 73.6131 217.604 75.6931 219.365 78.9631C221.136 82.2331 222.409 84.1231 224.869 87.0231C227.328 89.9231 228.688 91.5431 231.683 93.4531C234.679 95.3631 236.507 96.2331 239.857 96.5531C243.197 96.8631 245.207 96.4331 248.413 95.0231C251.61 93.6131 253.18 92.1331 255.869 89.5131C258.558 86.8831 260.291 84.9031 261.879 81.9031C263.468 78.9031 264.004 76.6231 263.822 74.5031C263.631 72.3831 262.32 71.1731 260.942 71.3131C259.573 71.4531 258.003 72.3031 256.95 75.1831C255.907 78.0731 255.993 80.9331 255.706 85.7231C255.41 90.5231 255.237 93.9231 255.515 99.1531C255.792 104.383 256.003 107.383 257.094 111.873C258.195 116.373 258.778 118.693 260.989 121.623C263.21 124.553 264.99 125.853 268.168 126.513C271.336 127.183 273.527 126.693 276.858 124.943C280.189 123.193 281.854 121.313 284.84 117.763C287.826 114.203 289.31 111.583 291.779 107.163C294.258 102.743 295.607 99.6931 297.206 95.6431C298.814 91.6031 299.704 89.2631 299.79 86.9431C299.866 84.6231 298.574 83.6831 297.608 84.0431C296.651 84.4131 295.215 85.7831 294.966 88.7531C294.727 91.7231 295.301 94.5731 296.373 98.9031C297.445 103.223 298.239 106.203 300.326 110.393C302.412 114.593 303.752 116.903 306.805 119.853C309.849 122.813 311.811 124.163 315.553 125.173C319.295 126.183 321.669 126.093 325.507 124.893C329.354 123.693 331.47 122.353 334.772 119.163C338.074 115.983 339.681 113.633 342.007 108.973C344.342 104.323 345.319 101.303 346.41 95.9031C347.501 90.4931 347.721 87.2331 347.463 81.9431C347.204 76.6531 346.639 73.7731 345.108 69.4331C343.577 65.0931 342.342 62.9831 339.815 60.2231C337.289 57.4631 335.394 56.3831 332.475 55.6431C329.555 54.9031 327.44 55.3031 325.201 56.5331C322.971 57.7731 321.803 59.3931 321.315 61.8031C320.836 64.2231 321.133 66.3631 322.779 68.6231C324.435 70.8931 326.167 72.1131 329.575 73.1331C332.982 74.1431 335.375 74.0131 339.815 73.7131C344.256 73.4131 346.879 72.8631 351.779 71.6131C356.689 70.3631 359.464 69.3531 364.336 67.4631C369.217 65.5831 372.041 64.1931 376.166 62.1931C380.3 60.1931 382.349 59.2731 384.99 57.4631C387.641 55.6631 388.761 54.4431 389.402 53.1631C390.053 51.8931 389.584 51.1331 388.235 51.1031C386.876 51.0731 385.478 51.6831 382.655 53.0131C379.841 54.3331 378.109 55.7031 374.137 57.7231C370.165 59.7431 367.466 61.2931 362.795 63.1031C358.115 64.9231 355.378 65.8431 350.765 66.7831C346.151 67.7231 343.567 67.9631 339.72 67.8031C335.872 67.6531 334.025 66.7631 331.527 66.0131C329.039 65.2631 328.349 64.7031 327.258 64.0431C326.167 63.3831 326.052 63.1631 326.072 62.7131C326.091 62.2631 326.359 61.9931 327.345 61.8031C328.33 61.6031 329.278 61.2531 331.001 61.7431C332.733 62.2231 334.035 62.3431 335.987 64.2431C337.93 66.1331 339.308 67.6231 340.734 71.2131C342.16 74.8031 342.83 77.4531 343.127 82.2031C343.414 86.9531 343.213 90.0531 342.189 94.9531C341.165 99.8631 340.15 102.653 338.007 106.743C335.863 110.823 334.274 112.773 331.479 115.373C328.684 117.973 326.952 118.823 324.033 119.733C321.114 120.643 319.592 120.693 316.874 119.933C314.146 119.173 312.701 118.353 310.423 115.943C308.145 113.523 306.987 111.563 305.485 107.843C303.972 104.133 303.618 101.343 302.9 97.3731C302.192 93.3931 302.747 90.7631 301.915 87.9831C301.082 85.2031 300.154 84.0231 298.737 83.4531C297.33 82.8931 296.22 83.1631 294.861 85.1531C293.511 87.1431 293.473 89.5331 291.97 93.4031C290.468 97.2731 289.568 100.373 287.338 104.503C285.118 108.633 283.491 111.023 280.859 114.063C278.227 117.103 276.552 118.313 274.207 119.703C271.862 121.093 270.924 121.303 269.134 121.013C267.335 120.723 266.665 120.333 265.229 118.253C263.803 116.173 262.865 114.463 261.975 110.603C261.085 106.753 260.798 103.833 260.779 98.9831C260.76 94.1431 261.257 90.8531 261.889 86.3931C262.511 81.9331 263.832 79.5931 263.918 76.6831C264.014 73.7831 263.373 72.7131 262.348 71.8631C261.334 71.0131 260.252 71.2631 258.817 72.4331C257.391 73.6031 256.74 75.2731 255.199 77.7031C253.658 80.1431 252.979 82.3831 251.103 84.6131C249.227 86.8531 247.944 87.8231 245.819 88.8731C243.685 89.9231 242.585 90.0831 240.45 89.8631C238.316 89.6531 237.196 89.2331 235.138 87.7831C233.081 86.3231 231.846 85.1031 230.152 82.5831C228.458 80.0731 227.778 78.1131 226.659 75.2331C225.539 72.3431 225.587 70.4031 224.553 68.1631C223.519 65.9231 222.581 64.9731 221.481 64.0431C220.39 63.1031 219.796 62.7031 219.069 63.4831C218.332 64.2631 217.93 64.9931 217.815 67.9331C217.691 70.8731 218.638 73.4431 218.466 78.1931C218.303 82.9431 217.987 86.2731 216.982 91.6931C215.968 97.1131 215.078 100.523 213.432 105.273C211.785 110.033 210.512 112.473 208.751 115.453C206.99 118.433 206.052 119.263 204.636 120.173C203.21 121.083 203.009 121.053 201.65 120.013C200.291 118.973 199.372 117.963 197.821 114.993C196.28 112.013 195.256 109.563 193.916 105.133C192.586 100.693 192.108 97.5031 191.15 92.8131C190.193 88.1231 190.251 85.2031 189.131 81.6831C188.011 78.1531 187.274 76.3831 185.542 75.1931C183.81 73.9931 182.144 73.9431 180.469 75.7031C178.794 77.4631 178.412 79.7131 177.167 83.9931C175.923 88.2731 175.559 91.7231 174.248 97.0931C172.927 102.473 172.028 105.973 170.583 110.863C169.137 115.753 167.912 118.373 167.013 121.563C166.113 124.753 166.17 126.043 166.094 126.793C166.008 127.533 166.764 127.233 166.63 125.303C166.486 123.363 165.874 121.483 165.386 117.103C164.897 112.723 164.62 109.333 164.199 103.403C163.787 97.4631 163.806 93.5031 163.309 87.4431C162.801 81.3831 162.715 77.9631 161.701 73.0931C160.686 68.2231 160.38 65.6731 158.217 63.0931C156.054 60.5231 153.872 59.7031 150.895 60.2131C147.919 60.7231 146.292 62.2831 143.344 65.6631C140.386 69.0331 138.932 71.6831 136.146 77.0631C133.371 82.4531 131.878 85.7431 129.437 92.5731C126.987 99.4031 125.8 103.483 123.924 111.223C122.048 118.963 121.292 123.483 120.058 131.263C118.833 139.043 118.402 143.433 117.78 150.123C117.158 156.813 116.784 160.263 116.947 164.733C117.11 169.203 117.588 171.133 118.603 172.483C119.608 173.833 121.235 173.643 121.991 171.493C122.747 169.333 122.297 167.173 122.383 161.713C122.47 156.243 122.307 152.403 122.412 144.163C122.508 135.923 122.565 130.693 122.881 120.523C123.197 110.343 123.398 104.313 123.991 93.2931C124.575 82.2731 124.948 76.1431 125.829 65.4131C126.7 54.6831 127.284 48.9631 128.365 39.6431C129.447 30.3231 130.193 25.6731 131.237 18.8231C132.289 11.9631 133.438 9.11312 133.601 5.36312C133.754 1.61312 133.065 0.343124 132.031 0.0531243C130.997 -0.246876 129.82 0.683124 128.413 3.88312C127.006 7.08312 126.815 10.3431 124.987 16.0631C123.168 21.7731 121.943 25.7631 119.321 32.4631C116.698 39.1631 114.985 43.2731 111.884 49.5531C108.783 55.8331 106.907 59.2731 103.816 63.8631C100.724 68.4531 98.8964 70.3331 96.4175 72.4931C93.9482 74.6431 93.173 74.9031 91.4407 74.6331C89.7083 74.3631 89.1819 73.8631 87.7559 71.1531C86.3298 68.4431 85.3057 65.9931 84.3103 61.0931C83.3245 56.1931 83.0565 52.4331 82.8077 46.6431C82.5589 40.8531 82.8556 37.1031 83.0853 32.1431C83.3245 27.1831 84.3103 24.6731 83.9945 21.8531C83.6786 19.0231 82.5493 17.9531 81.5061 18.0031C80.4724 18.0531 79.7259 19.0031 78.7975 22.1031C77.8595 25.2131 78.0797 28.1631 76.8354 33.5331C75.5912 38.9031 74.6916 42.5131 72.5668 48.9431C70.4421 55.3831 69.0256 59.3631 66.1926 65.7031C63.35 72.0331 61.5794 75.5431 58.3827 80.6331C55.186 85.7331 53.2623 88.1131 50.2187 91.1731C47.1848 94.2331 45.4907 95.0031 43.2033 95.9131C40.9062 96.8231 40.332 96.6831 38.7528 95.7331C37.164 94.7731 36.4175 93.8231 35.2594 91.1531C34.1109 88.4931 33.4122 86.2231 32.9911 82.4131C32.5604 78.5931 32.7805 75.8631 33.1347 72.0831C33.4888 68.2931 34.5512 66.1631 34.7617 63.4931C34.9818 60.8331 34.6182 59.5431 34.2066 58.7531C33.7951 57.9731 33.2208 58.0431 32.6944 59.5731C32.168 61.1131 32.302 62.8131 31.5937 66.4431C30.8759 70.0731 30.5888 73.0731 29.1244 77.7331C27.6505 82.3931 26.4446 85.4431 24.2433 89.7331C22.0515 94.0231 20.5011 96.3331 18.1466 99.1831C15.7922 102.033 14.28 102.833 12.4806 103.993C10.6717 105.153 10.2506 105.553 9.12124 104.993C8.00144 104.443 7.61861 103.623 6.8625 101.223C6.11597 98.8231 5.40772 96.8231 5.3503 93.0031C5.29287 89.1831 5.57043 86.3531 6.56581 82.1431C7.56118 77.9331 8.52784 75.3731 10.3272 71.9331C12.1265 68.5031 13.5717 66.9731 15.5625 64.9831C17.5532 63.0031 18.673 62.7331 20.2714 61.9931C21.8793 61.2631 22.4727 61.5231 23.5925 61.3031C24.7218 61.0831 25.0472 61.1531 25.8895 60.8831C26.7317 60.6131 27.1624 60.7031 27.8132 59.9531C28.4641 59.2031 29.201 58.2531 29.1436 57.1431" sodipodi:nodetypes="ccccccccccccccccccccccccccccccccccccccccccccccccccccccccccccccccccccccccccccccccccccccccccccccccccccccccccccccccccccccccccccccccccccccccccccccccccccccccccccccccccccccccccccccccccccccccccccccccccccccccccccccccccccccccccccccccccccccccccccccccccccccccccccccccccccccccc"/><path id="shape3" transform="matrix(0.72 0 0 0.72 490.8825811312 33.3088290128705)" fill="#E0E0E0" stroke="#E0E0E0" stroke-width="1" stroke-linecap="butt" stroke-linejoin="miter" stroke-miterlimit="2" d="M0.457137 0C0.576411 7.43303 0.511352 12.0734 0.478823 21.1862C0.446294 30.2886 0.359549 35.8213 0.283647 45.5221C0.207745 55.2228 0.131843 60.7976 0.0884704 69.7004C0.0450979 78.6033 -0.0741765 83.2541 0.0667842 90.0573C0.207745 96.8499 -0.25851 99.9575 0.804117 103.695C1.86674 107.432 3.22213 108.566 5.39076 108.724C7.55938 108.881 9.37019 107.716 11.6256 104.482C13.8701 101.249 14.499 98.0257 16.6351 92.5559C18.7712 87.0757 19.9748 83.1177 22.306 77.1125C24.6481 71.0967 26.0144 67.4117 28.3131 62.4984C30.6227 57.585 32.3576 55.3593 33.8431 52.5352C35.3286 49.711 35.4696 48.7241 35.7407 48.3777C36.0117 48.0207 35.0467 48.6192 35.1985 50.7714C35.3503 52.9131 35.719 54.9183 36.4888 59.0968C37.2587 63.2753 37.8117 66.4353 39.0478 71.6637C40.2948 76.892 40.902 80.22 42.6803 85.2279C44.4585 90.2357 45.2935 93.0074 47.9609 96.7029C50.6174 100.388 52.309 102.309 55.9848 103.695C59.6606 105.091 62.2629 105.039 66.3291 103.653C70.3953 102.267 72.5205 100.503 76.3373 96.7764C80.1541 93.0494 82.1384 90.2987 85.413 85.0074C88.6876 79.7161 90.3141 76.2201 92.7104 70.3303C95.1176 64.4406 96.1694 60.9551 97.438 55.5693C98.7067 50.1835 99.379 47.4538 99.0645 43.3908C98.7609 39.3384 98.0236 37.3121 95.8983 35.2754C93.7622 33.2492 91.4635 32.5563 88.4274 33.2492C85.3805 33.9316 83.3203 35.3804 80.6854 38.7295C78.0505 42.068 76.9662 44.8082 75.2422 49.963C73.5181 55.1178 72.7374 58.4879 72.0868 64.4826C71.4362 70.4773 71.317 74.1203 72.0001 79.9156C72.694 85.7108 73.3121 88.8814 75.5349 93.4588C77.7578 98.0362 79.3626 100.356 83.0926 102.803C86.8226 105.259 89.5226 105.952 94.1743 105.721C98.826 105.49 101.526 104.325 106.351 101.658C111.176 98.9916 113.735 96.7239 118.3 92.3985C122.854 88.0625 125.207 85.0494 129.154 80.0311C133.101 75.0127 135.009 71.8421 138.024 67.3067C141.049 62.7608 142.914 60.3356 144.259 57.3225C145.614 54.2989 145.224 52.7976 144.768 52.2097C144.313 51.6218 142.741 52.1572 141.992 54.3724C141.244 56.5876 141.19 58.8973 141.017 63.2648C140.843 67.6427 140.995 71.0337 141.147 76.2411C141.298 81.4589 141.353 84.724 141.797 89.3329C142.242 93.9523 141.971 96.4929 143.348 99.2961C144.725 102.11 146.351 103.086 148.661 103.37C150.971 103.653 152.933 103.076 154.896 100.713C156.858 98.3512 157.227 95.7895 158.474 91.5691C159.721 87.3486 160.09 84.2515 161.109 79.5901C162.139 74.9287 162.8 71.9261 163.592 68.2831C164.383 64.6506 164.698 62.9708 165.088 61.4065C165.479 59.8317 164.947 59.7792 165.544 60.4301C166.129 61.081 166.097 62.7083 168.048 64.6296C170 66.5613 171.757 68.0521 175.303 70.0679C178.859 72.0731 181.266 73.3539 185.82 74.6768C190.374 75.9891 193.053 76.577 198.073 76.64C203.093 76.7135 205.945 76.388 210.922 75.0022C215.888 73.6269 218.61 72.4091 222.936 69.7634C227.263 67.1178 229.464 65.2385 232.565 61.7844C235.677 58.3304 237.228 56.1992 238.464 52.4932C239.711 48.7976 239.862 46.3935 238.756 43.2964C237.65 40.1888 236.035 38.3305 232.934 36.9867C229.843 35.6429 227.143 35.3804 223.273 36.5772C219.402 37.7846 217.103 39.4749 213.568 43.0024C210.044 46.5299 208.125 49.1021 205.631 54.2254C203.137 59.3383 201.922 62.6243 201.087 68.5876C200.253 74.5403 201.767 83.3696 203.411 84.1308C205.184 88.6872 201.801 81.7266 205.087 86.535C208.361 91.3433 213.55 92.0782 218.571 95.0494C225.256 95.9207 229.916 94.325 236.021 95.0809C242.335 93.0153 242.443 94.1806 244.766 92.3328C255.316 83.7922 244.271 89.2856 248.728 87.3959C253.174 85.5166 247.84 86.7764 249.282 85.2121C250.724 83.6373 253.563 83.0809 251.481 83.2384C248.551 83.3854 251.566 86.5455 247.218 88.0783C242.881 89.6111 244.465 89.2961 241.212 91.4168C235.726 92.4877 236.711 91.3748 231.246 92.6452C225.77 92.0678 218.247 91.6583 220.848 92.2252C216.456 89.6426 211.625 88.4457 208.773 84.1938C205.911 79.9418 207.716 88.4405 206.685 83.1702C205.666 77.8998 204.861 74.5823 205.761 69.2595C206.661 63.9262 207.929 60.9026 210.358 56.5246C212.787 52.1362 214.858 50.005 217.916 47.3383C220.974 44.6717 223.077 44.1572 225.636 43.2124C228.195 42.257 229.269 42.2465 230.7 42.5929C232.131 42.9499 232.522 43.3803 232.804 44.9551C233.086 46.5194 233.075 47.8003 232.11 50.4249C231.155 53.0601 230.44 55.1283 228 58.0889C225.571 61.06 223.652 62.8868 219.944 65.2385C216.224 67.6007 213.763 68.724 209.426 69.8894C205.099 71.0547 202.562 71.2962 198.268 71.0547C193.985 70.8028 191.719 70.1519 187.989 68.6611C184.259 67.1702 182.611 65.6689 179.618 63.5902C176.636 61.5115 175.715 59.7267 173.069 58.2569C170.412 56.7871 168.916 56.1782 166.368 56.2412C163.82 56.3042 162.258 56.5141 160.339 58.5824C158.42 60.6611 157.986 62.6873 156.793 66.6033C155.59 70.5088 155.449 73.5219 154.332 78.1203C153.215 82.7187 152.348 85.6688 151.209 89.5848C150.081 93.4903 149.095 95.4431 148.672 97.6793C148.238 99.905 148.878 100.776 149.084 100.745C149.279 100.713 149.843 99.9155 149.659 97.5323C149.474 95.1386 148.553 93.0599 148.173 88.7764C147.783 84.5035 147.707 81.2279 147.728 76.1571C147.75 71.0967 148.195 67.8317 148.249 63.4432C148.314 59.0653 148.889 56.8186 148.043 54.2569C147.197 51.7058 145.853 50.6349 144.031 50.6664C142.209 50.6979 140.984 51.5798 138.935 54.4039C136.874 57.2385 136.43 60.1992 133.741 64.7976C131.063 69.3855 129.263 72.5036 125.511 77.3749C121.77 82.2358 119.352 85.1124 115.026 89.1229C110.699 93.1229 108.097 95.1071 103.868 97.4063C99.6284 99.7055 97.4272 100.367 93.8598 100.619C90.3033 100.86 88.8069 100.472 86.0419 98.6346C83.2769 96.7869 81.889 95.2646 80.0457 91.4116C78.1915 87.5691 77.3783 84.661 76.7927 79.3907C76.2072 74.1203 76.3156 70.5823 77.1072 65.0705C77.8987 59.5692 78.9397 56.3567 80.7722 51.8737C82.6046 47.3908 84.3395 45.3751 86.2588 42.6454C88.178 39.9053 89.1756 39.0864 90.3792 38.2045C91.5936 37.3121 91.7129 37.1127 92.3092 38.215C92.9056 39.3069 93.2851 40.3987 93.361 43.6743C93.4261 46.9499 93.6538 49.5955 92.6671 54.5929C91.6803 59.6007 90.7153 63.0968 88.4274 68.6925C86.1504 74.2778 84.4371 77.6584 81.2601 82.5402C78.0831 87.4116 75.9253 89.8998 72.5422 93.0599C69.1592 96.2305 67.2074 97.2908 64.334 98.3722C61.4606 99.443 60.5172 99.38 58.1751 98.4352C55.8221 97.4798 54.6619 96.5979 52.6126 93.6163C50.5741 90.6347 49.4572 88.1675 47.9392 83.5376C46.4211 78.9182 45.9549 75.6216 45.0224 70.4878C44.1007 65.3645 44.1332 62.2569 43.2983 57.9C42.4742 53.543 42.5393 51.1913 40.902 48.7137C39.2755 46.2255 37.5406 45.3226 35.1443 45.4906C32.748 45.6585 31.1866 46.5404 28.9095 49.5535C26.6324 52.5562 25.9927 55.3908 23.7482 60.5561C21.4928 65.7214 20.1157 69.3645 17.6543 75.3592C15.1929 81.3644 13.6749 85.2699 11.4304 90.5612C9.18585 95.863 7.63529 98.6451 6.42086 101.858C5.20643 105.081 5.58593 106.435 5.34739 106.635C5.11968 106.845 5.59678 106.215 5.26064 102.866C4.91366 99.5165 4.0679 96.5454 3.63417 89.9103C3.20045 83.2751 3.17876 78.5613 3.09202 69.6899C3.01611 60.8186 3.08117 55.2438 3.21129 45.5536C3.34141 35.8633 3.46068 30.3305 3.73176 21.2282C4.00284 12.1364 4.2197 7.48552 4.56668 0.0629918" sodipodi:nodetypes="cccccccccccccccccccccccccccccccccccccccccccccccccccccccccccccccccccccccccccccccccccccccccccccccccccccccccccccccccccccccccccccccccccccccccccccccccc"/>
</svg>
