<svg width="368.33334" height="164.8111" xmlns="http://www.w3.org/2000/svg"><defs/><g transform="matrix(1.7297554 0 0 1.7297554 7.7316136 8.648777)"><g><g transform="matrix(1 0 0 1 0 -0.5)"><path fill="none" stroke="#ffffff" d="M 0 0 L 0 87.27999"/></g><g transform="matrix(1 0 0 1 48.8 -0.5)"><path fill="none" stroke="#ffffff" d="M 0 0 L 0 87.27999"/></g><g transform="matrix(1 0 0 1 155.2 -0.5)"><path fill="none" stroke="#ffffff" d="M 0 0 L 0 87.27999"/></g><g transform="matrix(1 0 0 1 204 -0.5)"><path fill="none" stroke="#ffffff" d="M 0 0 L 0 87.27999"/></g><g transform="matrix(1 0 0 1 -0.5 0)"><path fill="none" stroke="#ffffff" d="M 0 0 L 205 0"/></g><g transform="matrix(1 0 0 1 -0.5 28.76)"><path fill="none" stroke="#ffffff" d="M 0 0 L 205 0"/></g><g transform="matrix(1 0 0 1 -0.5 57.52)"><path fill="none" stroke="#ffffff" d="M 0 0 L 205 0"/></g><g transform="matrix(1 0 0 1 -0.5 86.28)"><path fill="none" stroke="#ffffff" d="M 0 0 L 205 0"/></g><g transform="matrix(1 0 0 1 10 18.76)"><g transform="matrix(1 0 0 -1 0 0)"><g><path fill="#ffffff" stroke="none" d="M 2.448 0.672 L 2.448 3.78 C 2.448 4.512 2.964 5.232 3.732 5.232 C 4.464 5.232 4.752 4.584 4.752 3.972 L 4.752 0.672 C 4.752 0.144 5.0160003 -0.12 5.544 -0.12 C 6.084 -0.12 6.336 0.144 6.336 0.672 L 6.336 4.308 C 6.336 5.688 5.484 6.72 4.008 6.72 C 3.204 6.72 2.652 6.24 2.4 5.424 L 2.4 5.94 C 2.4 6.468 2.088 6.72 1.608 6.72 C 1.116 6.72 0.864 6.468 0.864 5.94 L 0.864 0.672 C 0.864 0.144 1.116 -0.12 1.656 -0.12 C 2.184 -0.12 2.448 0.144 2.448 0.672 Z"/></g><g><g transform="matrix(1 0 0 1 7.2 0)"><path fill="#ffffff" stroke="none" d="M 2.808 -0.12 C 3.636 -0.12 4.224 0.276 4.596 0.948 C 4.644 1.0320001 4.692 1.104 4.728 1.188 C 4.764 0.984 4.8 0.78 4.848 0.576 C 4.9440002 0.096 5.304 -0.12 5.796 -0.12 C 6.288 -0.12 6.42 0.096 6.312 0.576 C 6.084 1.62 6 2.532 6 3.408 C 5.988 4.272 6.072 5.136 6.204 6.012 C 6.264 6.492 6.084 6.72 5.592 6.72 C 5.112 6.72 4.8120003 6.492 4.728 6.012 C 4.728 5.976 4.728 5.952 4.716 5.916 C 4.44 6.384 4.02 6.72 3.348 6.72 C 2.436 6.72 1.752 6.288 1.284 5.58 C 0.816 4.872 0.588 3.876 0.588 2.808 C 0.588 0.696 1.656 -0.12 2.808 -0.12 Z M 3.108 1.344 C 2.4720001 1.344 2.172 1.932 2.172 2.808 C 2.172 4.152 2.736 5.256 3.66 5.256 C 4.392 5.256 4.524 4.452 4.524 3.588 C 4.524 2.088 3.816 1.344 3.108 1.344 Z"/></g></g><g><g transform="matrix(1 0 0 1 14.4 0)"><path fill="#ffffff" stroke="none" d="M 1.224 -0.12 C 1.668 -0.12 1.944 0.156 1.944 0.684 L 1.944 4.776 C 1.944 5.112 2.088 5.388 2.412 5.388 C 2.76 5.388 2.88 5.1 2.88 4.776 L 2.88 0.612 C 2.88 0.12 3.18 -0.12 3.6 -0.12 C 4.02 -0.12 4.32 0.12 4.32 0.612 L 4.32 4.776 C 4.32 5.112 4.44 5.388 4.764 5.388 C 5.1 5.388 5.232 5.1 5.232 4.776 L 5.232 0.684 C 5.232 0.156 5.532 -0.12 5.976 -0.12 C 6.42 -0.12 6.696 0.144 6.696 0.672 L 6.696 5.196 C 6.696 6.12 6.276 6.72 5.412 6.72 C 4.68 6.72 4.308 6.288 4.2 5.772 C 4.116 6.264 3.78 6.72 3.072 6.72 C 2.4 6.72 2.076 6.36 1.932 5.772 L 1.932 6.06 C 1.932 6.48 1.644 6.72 1.2 6.72 C 0.804 6.72 0.48 6.504 0.48 6.06 L 0.48 0.672 C 0.48 0.144 0.756 -0.12 1.224 -0.12 Z"/></g></g><g><g transform="matrix(1 0 0 1 21.6 0)"><path fill="#ffffff" stroke="none" d="M 5.52 1.932 C 5.364 1.932 5.232 1.884 5.076 1.752 C 4.872 1.572 4.356 1.344 3.78 1.344 C 3.072 1.344 2.4720001 1.74 2.28 2.796 L 5.652 2.796 C 6.096 2.796 6.336 3.048 6.336 3.516 C 6.336 5.184 5.664 6.72 3.708 6.72 C 2.64 6.72 1.908 6.312 1.44 5.664 C 0.972 5.0160003 0.78 4.1280003 0.78 3.252 C 0.78 1.332 1.752 -0.12 3.708 -0.12 C 4.668 -0.12 5.34 0.108 5.82 0.528 C 6.096 0.768 6.168 0.936 6.168 1.164 C 6.168 1.56 5.916 1.932 5.52 1.932 Z M 4.788 4.008 L 2.292 4.008 C 2.448 4.776 2.904 5.256 3.708 5.256 C 4.512 5.256 4.9440002 4.764 4.9440002 4.248 C 4.9440002 4.056 4.884 4.008 4.788 4.008 Z"/></g></g></g></g><g transform="matrix(1 0 0 1 58.8 18.76)"><g transform="matrix(1 0 0 -1 0 0)"><g><path fill="#ffffff" stroke="none" d="M 5.688 6.36 L 3.792 6.36 L 3.792 7.668 C 3.792 8.196 3.54 8.46 3 8.46 C 2.46 8.46 2.208 8.196 2.208 7.668 L 2.208 6.36 L 1.128 6.36 C 0.636 6.36 0.396 6.108 0.396 5.616 C 0.396 5.1480002 0.624 4.896 1.104 4.896 L 2.208 4.896 L 2.208 2.88 C 2.208 0.804 2.976 -0.12 4.38 -0.12 C 5.0160003 -0.12 5.592 -0.072 6.132 0.204 C 6.504 0.396 6.624 0.744 6.372 1.176 C 6.168 1.56 5.868 1.692 5.4 1.488 C 5.1480002 1.38 4.896 1.344 4.644 1.344 C 4.08 1.344 3.792 1.872 3.792 3.072 L 3.792 4.896 L 5.688 4.896 C 6.168 4.896 6.408 5.16 6.408 5.64 C 6.408 6.108 6.168 6.36 5.688 6.36 Z"/></g><g><g transform="matrix(1 0 0 1 7.2 0)"><path fill="#ffffff" stroke="none" d="M 5.172 6.24 L 3.648 2.052 L 2.112 6.252 C 2.028 6.48 1.872 6.6 1.524 6.6 C 0.912 6.6 0.624 6.276 0.888 5.556 L 2.916 0.036 L 2.796 -0.288 C 2.64 -0.768 2.52 -0.996 2.1 -1.38 C 1.908 -1.536 1.704 -1.656 1.428 -1.656 C 0.996 -1.656 0.804 -1.932 0.792 -2.364 L 0.792 -2.388 C 0.792 -2.88 1.044 -3.096 1.56 -3.096 C 2.004 -3.096 2.628 -2.928 3.168 -2.532 C 3.804 -2.052 4.284 -0.792 4.512 -0.12 L 6.444 5.532 C 6.492 5.712 6.528 5.868 6.528 6 C 6.528 6.42 6.264 6.6 5.7 6.6 C 5.424 6.6 5.256 6.48 5.172 6.24 Z"/></g></g><g><g transform="matrix(1 0 0 1 14.4 0)"><path fill="#ffffff" stroke="none" d="M 1.608 6.72 C 1.068 6.72 0.828 6.468 0.828 5.94 L 0.828 -1.488 C 0.828 -2.016 1.08 -2.28 1.62 -2.28 C 2.16 -2.28 2.412 -2.016 2.412 -1.488 L 2.412 1.104 C 2.544 0.348 3.168 -0.12 3.972 -0.12 C 6.048 -0.12 6.54 1.776 6.54 3.372 C 6.54 5.232 6.072 6.72 4.248 6.72 C 3.156 6.72 2.664 6.096 2.412 5.328 L 2.412 5.94 C 2.412 6.468 2.136 6.72 1.608 6.72 Z M 3.804 5.256 C 4.272 5.256 4.572 5.028 4.7400002 4.668 C 4.908 4.308 4.9440002 3.828 4.9440002 3.36 C 4.9440002 2.436 4.788 1.344 3.696 1.344 C 2.928 1.344 2.412 2.16 2.412 2.988 L 2.412 3.72 C 2.412 4.62 3.072 5.256 3.804 5.256 Z"/></g></g><g><g transform="matrix(1 0 0 1 21.6 0)"><path fill="#ffffff" stroke="none" d="M 5.52 1.932 C 5.364 1.932 5.232 1.884 5.076 1.752 C 4.872 1.572 4.356 1.344 3.78 1.344 C 3.072 1.344 2.4720001 1.74 2.28 2.796 L 5.652 2.796 C 6.096 2.796 6.336 3.048 6.336 3.516 C 6.336 5.184 5.664 6.72 3.708 6.72 C 2.64 6.72 1.908 6.312 1.44 5.664 C 0.972 5.0160003 0.78 4.1280003 0.78 3.252 C 0.78 1.332 1.752 -0.12 3.708 -0.12 C 4.668 -0.12 5.34 0.108 5.82 0.528 C 6.096 0.768 6.168 0.936 6.168 1.164 C 6.168 1.56 5.916 1.932 5.52 1.932 Z M 4.788 4.008 L 2.292 4.008 C 2.448 4.776 2.904 5.256 3.708 5.256 C 4.512 5.256 4.9440002 4.764 4.9440002 4.248 C 4.9440002 4.056 4.884 4.008 4.788 4.008 Z"/></g></g></g></g><g transform="matrix(1 0 0 1 165.2 18.76)"><g transform="matrix(1 0 0 -1 0 0)"><g><path fill="#ffffff" stroke="none" d="M 2.58 0.672 L 2.58 2.04 L 3.288 2.808 L 4.824 0.348 C 5.052 -0.036 5.364 -0.12 5.784 -0.12 C 6.228 -0.12 6.672 0.372 6.348 0.888 L 4.392 3.996 L 5.928 5.64 C 6.408 6.156 5.976 6.72 5.4 6.72 C 5.124 6.72 4.872 6.612 4.632 6.372 L 2.58 4.188 L 2.58 8.088 C 2.58 8.616 2.316 8.88 1.788 8.88 C 1.248 8.88 0.984 8.616 0.984 8.088 L 0.984 0.672 C 0.984 0.144 1.248 -0.12 1.788 -0.12 C 2.316 -0.12 2.58 0.144 2.58 0.672 Z"/></g><g><g transform="matrix(1 0 0 1 7.2 0)"><path fill="#ffffff" stroke="none" d="M 5.988 1.464 L 4.704 1.464 L 4.704 5.064 C 4.704 5.928 4.284 6.36 3.408 6.36 L 1.884 6.36 C 1.392 6.36 1.128 6.108 1.128 5.628 C 1.128 5.1480002 1.392 4.896 1.884 4.896 L 2.52 4.896 C 2.916 4.896 3.12 4.704 3.12 4.284 L 3.12 1.464 L 1.608 1.464 C 1.128 1.464 0.888 1.212 0.888 0.732 C 0.888 0.252 1.14 0 1.62 0 L 5.976 0 C 6.456 0 6.708 0.252 6.708 0.732 C 6.708 1.212 6.456 1.464 5.988 1.464 Z M 3.84 7.452 C 4.464 7.452 4.848 7.788 4.848 8.328 C 4.848 8.868 4.464 9.216 3.84 9.216 C 3.216 9.216 2.832 8.868 2.832 8.328 C 2.832 7.788 3.216 7.452 3.84 7.452 Z"/></g></g><g><g transform="matrix(1 0 0 1 14.4 0)"><path fill="#ffffff" stroke="none" d="M 2.448 0.672 L 2.448 3.78 C 2.448 4.512 2.964 5.232 3.732 5.232 C 4.464 5.232 4.752 4.584 4.752 3.972 L 4.752 0.672 C 4.752 0.144 5.0160003 -0.12 5.544 -0.12 C 6.084 -0.12 6.336 0.144 6.336 0.672 L 6.336 4.308 C 6.336 5.688 5.484 6.72 4.008 6.72 C 3.204 6.72 2.652 6.24 2.4 5.424 L 2.4 5.94 C 2.4 6.468 2.088 6.72 1.608 6.72 C 1.116 6.72 0.864 6.468 0.864 5.94 L 0.864 0.672 C 0.864 0.144 1.116 -0.12 1.656 -0.12 C 2.184 -0.12 2.448 0.144 2.448 0.672 Z"/></g></g><g><g transform="matrix(1 0 0 1 21.6 0)"><path fill="#ffffff" stroke="none" d="M 5.592 -0.12 C 6.132 -0.12 6.372 0.132 6.372 0.66 L 6.372 8.088 C 6.372 8.616 6.12 8.88 5.58 8.88 C 5.04 8.88 4.788 8.616 4.788 8.088 L 4.788 5.496 C 4.656 6.252 4.032 6.72 3.228 6.72 C 1.152 6.72 0.66 4.86 0.66 3.228 C 0.66 1.368 1.128 -0.12 2.952 -0.12 C 4.044 -0.12 4.5360003 0.504 4.788 1.272 L 4.788 0.66 C 4.788 0.132 5.064 -0.12 5.592 -0.12 Z M 3.396 1.344 C 2.928 1.344 2.628 1.584 2.4720001 1.944 C 2.304 2.304 2.256 2.772 2.256 3.24 C 2.256 4.164 2.412 5.256 3.504 5.256 C 4.272 5.256 4.788 4.44 4.788 3.612 L 4.788 2.88 C 4.788 1.98 4.164 1.344 3.396 1.344 Z"/></g></g></g></g><g transform="matrix(1 0 0 1 10 47.52)"><g transform="matrix(1 0 0 -1 0 0)"><g><path fill="#ffffff" stroke="none" d="M 2.22 0.42 L 2.22 3.792 C 2.22 4.56 2.82 5.7 3.684 5.7 C 4.548 5.7 4.98 4.956 4.98 4.1280003 L 4.98 0.42 C 4.98 0.048 5.1480002 -0.12 5.52 -0.12 C 5.892 -0.12 6.06 0.048 6.06 0.42 L 6.06 4.44 C 6.06 5.82 5.1480002 6.72 3.864 6.72 C 2.988 6.72 2.448 6.24 2.22 5.472 L 2.22 6.18 C 2.22 6.552 2.052 6.72 1.68 6.72 C 1.308 6.72 1.14 6.552 1.14 6.18 L 1.14 0.42 C 1.14 0.048 1.308 -0.12 1.68 -0.12 C 2.052 -0.12 2.22 0.048 2.22 0.42 Z"/></g><g><g transform="matrix(1 0 0 1 7.2 0)"><path fill="#ffffff" stroke="none" d="M 3.6 -0.12 C 5.46 -0.12 6.3 1.332 6.3 3.312 C 6.3 5.292 5.484 6.72 3.6 6.72 C 1.74 6.72 0.9 5.292 0.9 3.312 C 0.9 1.332 1.74 -0.12 3.6 -0.12 Z M 3.6 0.96 C 2.484 0.96 1.98 1.92 1.98 3.3 C 1.98 4.68 2.448 5.64 3.6 5.64 C 4.752 5.64 5.2200003 4.692 5.2200003 3.312 C 5.2200003 1.932 4.716 0.96 3.6 0.96 Z"/></g></g><g><g transform="matrix(1 0 0 1 14.4 0)"><path fill="#ffffff" stroke="none" d="M 5.748 6.36 L 3.54 6.36 L 3.54 7.92 C 3.54 8.292 3.372 8.46 3 8.46 C 2.628 8.46 2.46 8.292 2.46 7.92 L 2.46 6.36 L 1.056 6.36 C 0.732 6.36 0.564 6.144 0.564 5.82 C 0.564 5.496 0.732 5.28 1.056 5.28 L 2.46 5.28 L 2.46 2.484 C 2.46 0.696 3.228 -0.12 4.38 -0.12 C 5.052 -0.12 5.604 -0.072 6.084 0.18 C 6.384 0.336 6.468 0.612 6.276 0.936 C 6.096 1.2360001 5.856 1.344 5.532 1.164 C 5.16 0.984 4.884 0.96 4.56 0.96 C 3.888 0.96 3.54 1.536 3.54 2.688 L 3.54 5.28 L 5.748 5.28 C 6.072 5.28 6.24 5.496 6.24 5.82 C 6.24 6.144 6.072 6.36 5.748 6.36 Z"/></g></g></g></g><g transform="matrix(1 0 0 1 58.8 47.52)"><g transform="matrix(1 0 0 -1 0 0)"><g><path fill="#ffffff" stroke="none" d="M 1.62 -0.12 C 1.992 -0.12 2.16 0.06 2.16 0.432 L 2.16 1.2 C 2.448 0.396 3 -0.12 3.924 -0.12 C 5.88 -0.12 6.24 1.596 6.24 3.072 C 6.24 4.8 5.82 6.72 3.804 6.72 C 2.928 6.72 2.304 6.192 2.16 5.472 L 2.16 8.34 C 2.16 8.712 1.992 8.88 1.62 8.88 C 1.248 8.88 1.08 8.712 1.08 8.34 L 1.08 0.432 C 1.08 0.06 1.248 -0.12 1.62 -0.12 Z M 3.816 0.96 C 2.952 0.96 2.16 1.704 2.16 2.4720001 L 2.16 3.792 C 2.16 4.56 2.76 5.64 3.624 5.64 C 5.004 5.64 5.16 4.356 5.16 3.144 C 5.16 1.896 4.872 0.96 3.816 0.96 Z"/></g><g><g transform="matrix(1 0 0 1 7.2 0)"><path fill="#ffffff" stroke="none" d="M 3.6 -0.12 C 5.46 -0.12 6.3 1.332 6.3 3.312 C 6.3 5.292 5.484 6.72 3.6 6.72 C 1.74 6.72 0.9 5.292 0.9 3.312 C 0.9 1.332 1.74 -0.12 3.6 -0.12 Z M 3.6 0.96 C 2.484 0.96 1.98 1.92 1.98 3.3 C 1.98 4.68 2.448 5.64 3.6 5.64 C 4.752 5.64 5.2200003 4.692 5.2200003 3.312 C 5.2200003 1.932 4.716 0.96 3.6 0.96 Z"/></g></g><g><g transform="matrix(1 0 0 1 14.4 0)"><path fill="#ffffff" stroke="none" d="M 3.6 -0.12 C 5.46 -0.12 6.3 1.332 6.3 3.312 C 6.3 5.292 5.484 6.72 3.6 6.72 C 1.74 6.72 0.9 5.292 0.9 3.312 C 0.9 1.332 1.74 -0.12 3.6 -0.12 Z M 3.6 0.96 C 2.484 0.96 1.98 1.92 1.98 3.3 C 1.98 4.68 2.448 5.64 3.6 5.64 C 4.752 5.64 5.2200003 4.692 5.2200003 3.312 C 5.2200003 1.932 4.716 0.96 3.6 0.96 Z"/></g></g><g><g transform="matrix(1 0 0 1 21.6 0)"><path fill="#ffffff" stroke="none" d="M 3.708 2.688 L 3.72 7.8 C 3.72 8.46 3.42 8.76 2.76 8.76 L 1.272 8.76 C 0.948 8.76 0.78 8.592 0.78 8.268 C 0.78 7.944 0.948 7.776 1.272 7.776 L 2.16 7.776 C 2.484 7.776 2.64 7.62 2.64 7.296 L 2.628 2.484 C 2.628 0.696 3.396 -0.12 4.548 -0.12 C 5.2200003 -0.12 5.772 -0.072 6.252 0.18 C 6.552 0.336 6.636 0.612 6.444 0.936 C 6.264 1.2360001 6.024 1.344 5.7 1.164 C 5.328 0.984 5.052 0.96 4.728 0.96 C 4.056 0.96 3.708 1.536 3.708 2.688 Z"/></g></g><g><g transform="matrix(1 0 0 1 36 0)"><path fill="#ffffff" stroke="none" d="M 1.44 3.42 L 7.2 3.42 L 7.2 4.5 L 1.44 4.5 C 1.068 4.5 0.9 4.3320003 0.9 3.96 C 0.9 3.588 1.068 3.42 1.44 3.42 Z"/></g></g><g><g transform="matrix(1 0 0 1 43.2 0)"><path fill="#ffffff" stroke="none" d="M 3.492 5.64 C 3.6 5.532 3.6 5.412 3.492 5.304 L 2.856 4.668 C 2.748 4.56 2.604 4.5 2.448 4.5 L 0 4.5 L 0 3.42 L 2.448 3.42 C 2.604 3.42 2.748 3.36 2.856 3.252 L 3.492 2.616 C 3.6 2.5080001 3.6 2.388 3.492 2.28 L 2.388 1.176 C 2.136 0.924 2.136 0.66 2.388 0.408 C 2.64 0.156 2.904 0.156 3.156 0.408 L 6.024 3.276 C 6.492 3.744 6.492 4.176 6.024 4.644 L 3.156 7.512 C 2.904 7.764 2.64 7.764 2.388 7.512 C 2.136 7.26 2.136 6.996 2.388 6.744 Z M 4.764 3.552 C 4.5360003 3.324 4.32 3.324 4.092 3.552 L 4.02 3.624 C 3.78 3.864 3.78 4.056 4.02 4.296 L 4.092 4.368 C 4.32 4.596 4.5360003 4.596 4.764 4.368 L 4.836 4.296 C 5.064 4.068 5.064 3.852 4.836 3.624 Z"/></g></g><g><g transform="matrix(1 0 0 1 57.6 0)"><path fill="#ffffff" stroke="none" d="M 1.62 -0.12 C 1.992 -0.12 2.16 0.06 2.16 0.432 L 2.16 1.2 C 2.448 0.396 3 -0.12 3.924 -0.12 C 5.88 -0.12 6.24 1.596 6.24 3.072 C 6.24 4.8 5.82 6.72 3.804 6.72 C 2.928 6.72 2.304 6.192 2.16 5.472 L 2.16 8.34 C 2.16 8.712 1.992 8.88 1.62 8.88 C 1.248 8.88 1.08 8.712 1.08 8.34 L 1.08 0.432 C 1.08 0.06 1.248 -0.12 1.62 -0.12 Z M 3.816 0.96 C 2.952 0.96 2.16 1.704 2.16 2.4720001 L 2.16 3.792 C 2.16 4.56 2.76 5.64 3.624 5.64 C 5.004 5.64 5.16 4.356 5.16 3.144 C 5.16 1.896 4.872 0.96 3.816 0.96 Z"/></g></g><g><g transform="matrix(1 0 0 1 64.8 0)"><path fill="#ffffff" stroke="none" d="M 3.6 -0.12 C 5.46 -0.12 6.3 1.332 6.3 3.312 C 6.3 5.292 5.484 6.72 3.6 6.72 C 1.74 6.72 0.9 5.292 0.9 3.312 C 0.9 1.332 1.74 -0.12 3.6 -0.12 Z M 3.6 0.96 C 2.484 0.96 1.98 1.92 1.98 3.3 C 1.98 4.68 2.448 5.64 3.6 5.64 C 4.752 5.64 5.2200003 4.692 5.2200003 3.312 C 5.2200003 1.932 4.716 0.96 3.6 0.96 Z"/></g></g><g><g transform="matrix(1 0 0 1 72 0)"><path fill="#ffffff" stroke="none" d="M 3.6 -0.12 C 5.46 -0.12 6.3 1.332 6.3 3.312 C 6.3 5.292 5.484 6.72 3.6 6.72 C 1.74 6.72 0.9 5.292 0.9 3.312 C 0.9 1.332 1.74 -0.12 3.6 -0.12 Z M 3.6 0.96 C 2.484 0.96 1.98 1.92 1.98 3.3 C 1.98 4.68 2.448 5.64 3.6 5.64 C 4.752 5.64 5.2200003 4.692 5.2200003 3.312 C 5.2200003 1.932 4.716 0.96 3.6 0.96 Z"/></g></g><g><g transform="matrix(1 0 0 1 79.2 0)"><path fill="#ffffff" stroke="none" d="M 3.708 2.688 L 3.72 7.8 C 3.72 8.46 3.42 8.76 2.76 8.76 L 1.272 8.76 C 0.948 8.76 0.78 8.592 0.78 8.268 C 0.78 7.944 0.948 7.776 1.272 7.776 L 2.16 7.776 C 2.484 7.776 2.64 7.62 2.64 7.296 L 2.628 2.484 C 2.628 0.696 3.396 -0.12 4.548 -0.12 C 5.2200003 -0.12 5.772 -0.072 6.252 0.18 C 6.552 0.336 6.636 0.612 6.444 0.936 C 6.264 1.2360001 6.024 1.344 5.7 1.164 C 5.328 0.984 5.052 0.96 4.728 0.96 C 4.056 0.96 3.708 1.536 3.708 2.688 Z"/></g></g></g></g><g transform="matrix(1 0 0 1 165.2 47.52)"><g transform="matrix(1 0 0 -1 0 0)"><g><path fill="#ffffff" stroke="none" d="M 3.6 0.84 C 3.972 0.84 4.14 1.008 4.14 1.38 L 4.14 3.024 L 5.568 2.196 C 5.76 2.088 5.94 2.0640001 6.084 2.16 C 6.192 2.244 6.3 2.364 6.36 2.52 C 6.456 2.796 6.372 2.976 6.108 3.132 L 4.68 3.96 L 6.108 4.788 C 6.372 4.9440002 6.456 5.124 6.36 5.412 C 6.3 5.556 6.204 5.676 6.084 5.76 C 5.94 5.856 5.76 5.832 5.568 5.724 L 4.14 4.896 L 4.14 6.54 C 4.14 6.912 3.972 7.08 3.6 7.08 C 3.228 7.08 3.06 6.912 3.06 6.54 L 3.06 4.896 L 1.632 5.724 C 1.44 5.832 1.26 5.856 1.128 5.76 C 0.996 5.676 0.9 5.556 0.852 5.412 C 0.744 5.124 0.828 4.9440002 1.092 4.788 L 2.52 3.96 L 1.092 3.132 C 0.828 2.976 0.744 2.796 0.852 2.52 C 0.9 2.364 1.008 2.244 1.128 2.16 C 1.26 2.0640001 1.44 2.088 1.632 2.196 L 3.06 3.024 L 3.06 1.38 C 3.06 1.008 3.228 0.84 3.6 0.84 Z"/></g></g></g><g transform="matrix(1 0 0 1 10 76.28)"><g transform="matrix(1 0 0 -1 0 0)"><g><path fill="#ffffff" stroke="none" d="M 2.1 0.24 L 3.6 2.46 L 5.1 0.24 C 5.256 0 5.46 -0.12 5.712 -0.12 C 6.06 -0.12 6.456 0.144 6.132 0.588 L 4.236 3.396 L 6 6 C 6.324 6.48 5.94 6.72 5.592 6.72 C 5.316 6.72 5.112 6.6 4.956 6.36 L 3.6 4.344 L 2.244 6.36 C 2.088 6.588 1.896 6.72 1.62 6.72 C 1.272 6.72 0.876 6.48 1.2 6 L 2.964 3.396 L 1.068 0.588 C 0.744 0.144 1.14 -0.12 1.488 -0.12 C 1.74 -0.12 1.944 0.012 2.1 0.24 Z"/></g></g></g><g transform="matrix(1 0 0 1 58.8 76.28)"><g transform="matrix(1 0 0 -1 0 0)"><g><path fill="#ffffff" stroke="none" d="M 1.62 -0.12 C 1.992 -0.12 2.16 0.06 2.16 0.432 L 2.16 1.2 C 2.448 0.396 3 -0.12 3.924 -0.12 C 5.88 -0.12 6.24 1.596 6.24 3.072 C 6.24 4.8 5.82 6.72 3.804 6.72 C 2.928 6.72 2.304 6.192 2.16 5.472 L 2.16 8.34 C 2.16 8.712 1.992 8.88 1.62 8.88 C 1.248 8.88 1.08 8.712 1.08 8.34 L 1.08 0.432 C 1.08 0.06 1.248 -0.12 1.62 -0.12 Z M 3.816 0.96 C 2.952 0.96 2.16 1.704 2.16 2.4720001 L 2.16 3.792 C 2.16 4.56 2.76 5.64 3.624 5.64 C 5.004 5.64 5.16 4.356 5.16 3.144 C 5.16 1.896 4.872 0.96 3.816 0.96 Z"/></g><g><g transform="matrix(1 0 0 1 7.2 0)"><path fill="#ffffff" stroke="none" d="M 3.6 -0.12 C 5.46 -0.12 6.3 1.332 6.3 3.312 C 6.3 5.292 5.484 6.72 3.6 6.72 C 1.74 6.72 0.9 5.292 0.9 3.312 C 0.9 1.332 1.74 -0.12 3.6 -0.12 Z M 3.6 0.96 C 2.484 0.96 1.98 1.92 1.98 3.3 C 1.98 4.68 2.448 5.64 3.6 5.64 C 4.752 5.64 5.2200003 4.692 5.2200003 3.312 C 5.2200003 1.932 4.716 0.96 3.6 0.96 Z"/></g></g><g><g transform="matrix(1 0 0 1 14.4 0)"><path fill="#ffffff" stroke="none" d="M 3.6 -0.12 C 5.46 -0.12 6.3 1.332 6.3 3.312 C 6.3 5.292 5.484 6.72 3.6 6.72 C 1.74 6.72 0.9 5.292 0.9 3.312 C 0.9 1.332 1.74 -0.12 3.6 -0.12 Z M 3.6 0.96 C 2.484 0.96 1.98 1.92 1.98 3.3 C 1.98 4.68 2.448 5.64 3.6 5.64 C 4.752 5.64 5.2200003 4.692 5.2200003 3.312 C 5.2200003 1.932 4.716 0.96 3.6 0.96 Z"/></g></g><g><g transform="matrix(1 0 0 1 21.6 0)"><path fill="#ffffff" stroke="none" d="M 3.708 2.688 L 3.72 7.8 C 3.72 8.46 3.42 8.76 2.76 8.76 L 1.272 8.76 C 0.948 8.76 0.78 8.592 0.78 8.268 C 0.78 7.944 0.948 7.776 1.272 7.776 L 2.16 7.776 C 2.484 7.776 2.64 7.62 2.64 7.296 L 2.628 2.484 C 2.628 0.696 3.396 -0.12 4.548 -0.12 C 5.2200003 -0.12 5.772 -0.072 6.252 0.18 C 6.552 0.336 6.636 0.612 6.444 0.936 C 6.264 1.2360001 6.024 1.344 5.7 1.164 C 5.328 0.984 5.052 0.96 4.728 0.96 C 4.056 0.96 3.708 1.536 3.708 2.688 Z"/></g></g></g></g><g transform="matrix(1 0 0 1 165.2 76.28)"><g transform="matrix(1 0 0 -1 0 0)"><g><path fill="#ffffff" stroke="none" d="M 3.6 0.84 C 3.972 0.84 4.14 1.008 4.14 1.38 L 4.14 3.024 L 5.568 2.196 C 5.76 2.088 5.94 2.0640001 6.084 2.16 C 6.192 2.244 6.3 2.364 6.36 2.52 C 6.456 2.796 6.372 2.976 6.108 3.132 L 4.68 3.96 L 6.108 4.788 C 6.372 4.9440002 6.456 5.124 6.36 5.412 C 6.3 5.556 6.204 5.676 6.084 5.76 C 5.94 5.856 5.76 5.832 5.568 5.724 L 4.14 4.896 L 4.14 6.54 C 4.14 6.912 3.972 7.08 3.6 7.08 C 3.228 7.08 3.06 6.912 3.06 6.54 L 3.06 4.896 L 1.632 5.724 C 1.44 5.832 1.26 5.856 1.128 5.76 C 0.996 5.676 0.9 5.556 0.852 5.412 C 0.744 5.124 0.828 4.9440002 1.092 4.788 L 2.52 3.96 L 1.092 3.132 C 0.828 2.976 0.744 2.796 0.852 2.52 C 0.9 2.364 1.008 2.244 1.128 2.16 C 1.26 2.0640001 1.44 2.088 1.632 2.196 L 3.06 3.024 L 3.06 1.38 C 3.06 1.008 3.228 0.84 3.6 0.84 Z"/></g></g></g></g></g></svg>